<svg width="329" height="408" viewBox="0 0 329 408" fill="none" xmlns="http://www.w3.org/2000/svg">
<path d="M148.708 24.6586C156.032 21.4593 159.722 21.9099 162.534 21.8145C163.634 21.7772 164.74 21.7277 165.836 21.8323C168.961 22.1306 173.875 22.4563 177.988 23.5581C182.929 24.8821 185.19 26.0604 188.892 28.2691C192.594 30.4778 193.653 31.334 196.499 34.6015C199.345 37.869 199.706 37.3217 203.122 44.6065C206.538 51.8912 210.759 63.1135 213.577 71.0254C216.395 78.9373 215.917 76.4475 217.213 84.1662C218.508 91.8848 219.537 99.5319 220.055 109.619C220.572 119.705 220.45 124.969 219.802 134.6C219.154 144.231 218.592 148.732 216.813 157.774L216.768 158.005C215.018 166.899 214.071 171.716 210.909 179.81C207.72 187.973 206.198 190.714 200.867 198.589C195.536 206.465 197.08 207.379 184.255 219.187C171.429 230.994 148.543 247.764 136.74 257.626C124.936 267.489 129.278 263.571 125.238 268.5C121.197 273.429 119.314 276.718 116.538 282.272C113.761 287.826 112.556 290.723 111.356 296.27C110.156 301.818 109.256 305.441 110.538 310.007C111.819 314.573 114.114 316.691 117.763 319.1C121.412 321.509 123.415 322.046 128.781 322.052C134.147 322.058 138.903 321.401 144.592 319.132C150.282 316.863 149.767 318.515 157.227 310.709C164.567 303.027 171.893 293.331 181.425 280.715L181.889 280.101C191.647 267.186 198.001 256.293 206.02 246.131C214.039 235.97 214.281 234.532 221.982 229.296C229.683 224.059 237.242 222.292 244.526 219.949C251.809 217.607 253.991 217.476 258.4 217.583C262.808 217.691 263.391 217.919 266.567 220.488C269.744 223.056 272.189 226.217 274.281 230.427C276.374 234.638 276.702 236.085 277.029 241.541C277.356 246.996 277.696 249.735 275.919 257.704C274.141 265.673 270.808 275.443 268.142 281.385C265.477 287.326 265.321 283.634 262.591 287.412C259.861 291.189 256.189 293.14 254.493 300.271C252.797 307.403 256.096 315.659 254.11 323.07C252.124 330.482 250.367 332.23 244.563 337.331C238.759 342.432 230.902 343.976 225.09 348.574C219.278 353.171 218.314 354.631 215.502 360.318C212.69 366.006 211.779 371.273 211.029 377.012C210.278 382.751 210.048 385.48 211.749 389.013C213.451 392.547 216.438 393.419 219.535 394.678C222.633 395.938 224.361 395.9 227.238 395.311C230.116 394.722 233.66 391.378 233.922 391.734C234.184 392.091 232.586 395.384 228.55 397.094C224.513 398.803 219.573 400.414 213.74 400.282C207.906 400.15 204.363 399.487 199.383 396.435C194.404 393.383 192.353 391.689 188.843 385.023C185.333 378.357 181.646 375.293 181.834 363.106C182.022 350.918 184.804 337.063 189.785 324.084C194.765 311.105 200.182 306.116 206.737 298.21C213.292 290.305 215.464 287.81 222.562 284.559C229.659 281.307 236.155 281.903 242.225 281.955C248.294 282.007 249.127 285.307 252.909 284.818C256.69 284.328 257.727 284.463 261.131 279.506C264.534 274.549 267.673 267.375 269.927 260.035C272.18 252.694 272.429 248.825 272.396 242.804C272.363 236.784 271.89 234.009 269.762 229.932C267.634 225.855 266.461 223.823 261.756 222.419C257.051 221.015 253.715 220.909 246.236 222.913C238.757 224.916 232.651 226.071 224.361 232.438C216.07 238.805 212.457 244.278 204.785 254.747C197.113 265.215 196.853 270.728 186.002 284.782C175.151 298.836 162.804 316.068 150.53 325.017C138.256 333.966 133.861 330.069 124.63 329.528C115.4 328.987 111.203 327.29 104.378 322.312C97.5528 317.335 94.0285 311.524 90.5055 304.639C86.9825 297.755 93.1685 300.844 86.7627 287.892C80.357 274.939 66.0818 255.297 58.4767 239.876C50.8716 224.455 51.2163 222.902 48.7371 210.787C46.258 198.671 45.7877 189.742 46.0808 179.3C46.3738 168.859 47.6285 166.046 50.2023 158.577C52.7762 151.108 55.413 146.876 58.9502 141.955C62.4873 137.034 64.3225 136.596 67.888 133.973C71.4536 131.35 72.7284 130.331 76.7779 128.84C80.8275 127.349 80.894 131.374 88.1359 126.516C95.3779 121.657 107.335 113.625 112.988 104.548C118.641 95.4702 116.894 88.6327 116.4 81.1288C115.906 73.6248 109.795 75.0647 110.517 67.0279C111.239 58.9911 112.373 49.4184 120.011 40.9446C127.649 32.4707 139.873 28.5177 148.708 24.6586Z" fill="#82525B"/>
<path d="M66.0743 216.863C55.211 207.726 56.2123 197.044 53.7468 192.09L53.2338 190.755C52.642 189.216 52.3461 188.446 52.1808 187.649C52.0154 186.852 51.9814 186.046 51.9132 184.434C51.7093 179.607 51.5822 173.364 52.6639 166.751C54.0096 158.523 55.0761 152.94 58.7887 146.564C62.5012 140.187 66.155 138.303 71.2266 134.867C76.2983 131.431 81.3006 130.123 84.147 129.383C86.9933 128.643 87.308 129.872 85.4585 131.166C83.6089 132.459 78.7366 133.015 74.8992 135.851C71.0617 138.688 68.9272 139.976 66.2712 145.348C63.6153 150.72 61.7906 153.523 61.6193 162.709C61.448 171.896 62.1518 182.891 65.4147 191.28C68.6776 199.669 72.231 199.762 77.934 204.654C83.6369 209.546 88.6542 214.325 93.9293 215.739C99.2044 217.152 102.289 214.186 104.31 211.721C106.33 209.257 103.317 207.948 104.03 203.416C104.744 198.884 94.9627 193.186 107.877 189.06C120.791 184.934 152.212 188.129 168.601 182.787C184.99 177.445 182.117 174.814 189.822 162.351C197.528 149.887 201.004 128.632 207.128 120.468C213.252 112.304 217.921 117.85 220.441 121.531C222.962 125.212 222.214 127.085 220.272 138.874C219.735 142.355 218.78 148.396 217.227 155.828C215.537 164.415 213.505 173.388 211.272 180.477C207.445 192.62 205.894 191.849 200.599 199.591C195.304 207.333 192.426 211.929 184.255 219.187C176.084 226.444 167.02 231.96 159.743 235.878C152.467 239.797 158.208 238.402 147.872 238.781C137.536 239.16 124.423 242.159 108.064 237.776C91.7039 233.392 76.9377 226.001 66.0743 216.863Z" fill="#B8969C"/>
<path d="M170.041 77.2521C163.689 79.0568 156.467 78.7676 153.073 79.1465C155.603 82.2578 149.835 83.2172 151.642 84.4885C153.448 85.7597 156.823 86.5208 162.105 85.5029C167.388 84.485 175.315 79.7387 178.054 79.3991C180.793 79.0595 180.711 80.9697 175.8 83.8049C170.89 86.64 158.626 89.9384 153.501 93.5748C148.376 97.2113 149.884 98.2595 150.174 101.987C150.463 105.715 154.989 107.786 154.948 112.212C154.907 116.639 152.337 120.888 149.969 124.118C147.601 127.348 144.329 126.472 143.106 128.363C141.884 130.254 144.43 131.437 143.857 133.574C143.284 135.71 142.044 137.668 140.243 139.047C138.443 140.425 136.533 140.342 134.854 140.465C133.175 140.588 133.07 138.842 131.849 139.66C130.628 140.478 130.923 142.847 128.748 144.555C126.573 146.262 125.057 147.645 120.973 148.197C116.889 148.748 111.474 148.657 108.328 147.313C105.181 145.969 106.278 144.545 105.24 141.476C104.202 138.407 104.816 134.778 103.136 131.966C101.456 129.155 99.422 128.466 96.8405 127.417C94.259 126.367 89.1362 127.857 90.2286 126.719C91.3209 125.58 94.0762 130.255 102.302 121.723C110.528 113.192 121.491 91.5104 131.359 84.0634C141.227 76.6164 147.585 84.4034 151.642 84.4885C149.835 83.2172 155.603 82.2578 153.073 79.1465C150.543 76.0353 142.609 75.1975 138.992 68.9323C135.374 62.667 133.24 55.9404 134.987 47.8202C136.733 39.6999 142.348 32.9024 147.724 28.3312C153.099 23.7599 156.29 25.4737 161.866 24.9638C167.442 24.4539 170.394 24.3862 175.602 25.7818C180.811 27.1774 184.002 28.8911 187.908 31.9417C191.814 34.9922 193.905 36.2683 195.133 41.0345C196.361 45.8007 196.106 49.9551 194.047 55.7727C191.987 61.5903 189.635 65.8268 184.834 70.1227C180.042 74.4108 176.407 75.4436 170.076 77.2424L170.041 77.2521Z" fill="black" fill-opacity="0.25"/>
<path d="M170.314 90.9231C175.097 81.4621 180.949 80.8504 185.036 80.0028C190.14 68.9255 194.925 58.6188 198.433 51.287C199.441 46.9066 202.005 43.9883 202.005 43.9883C202.005 43.9883 206.81 58.4022 211.22 66.621C211.523 67.185 211.785 67.7687 211.988 68.3759L214.978 77.3471L217.243 86.2015C217.243 86.2015 218.479 109.264 216.651 115.836C214.97 115.463 208.112 114.586 202.021 114.79C197.429 123.254 193.177 130.872 191.572 133.119C186.846 152.893 183.916 148.602 174.977 157.657C166.038 166.713 163.248 172.049 146.876 178.397C133.085 183.744 104.384 187.889 95.6749 189.063C93.9942 189.289 92.4341 190.129 90.7637 190.422C85.2551 191.387 78.8947 183.547 74.5139 178.689C69.4931 173.121 68.4705 168.123 68.0108 161.559C67.5511 154.995 68.7319 150.588 72.2154 145.867C75.2721 141.725 83.1595 141.879 85.0461 141.978C85.3185 141.993 85.1964 142.064 85.4626 142.004C87.9887 141.435 102.715 150.616 103.733 152.996C103.961 153.529 104.136 154.093 104.243 154.691C104.475 155.985 105.243 157.239 106.47 157.711C110.282 159.177 116.077 161.833 121.67 161.623C128.522 161.367 151.217 151.936 154.384 145.854C154.828 145.001 155.298 144.07 155.805 143.052C156.278 142.068 157.003 140.556 157.865 138.738C163.468 125.408 164.368 102.687 170.314 90.9231Z" fill="#CB6C66" fill-opacity="0.25"/>
<path d="M207.438 326.31C207.811 318.418 210.393 310.393 212.699 303.917C214.097 299.99 209.913 294.837 207.16 297.966C201.912 303.931 194.881 311.208 189.784 324.084C184.688 336.961 181.867 350.161 181.679 362.348C181.49 374.536 185.302 378.206 188.843 385.023C192.384 391.84 194.404 393.383 199.383 396.435C204.362 399.487 210.538 400.211 213.74 400.282C216.941 400.353 216.457 399.221 215.391 396.788C214.326 394.356 209.795 392.569 208.411 388.119C207.026 383.669 207.547 380.659 208.471 374.537C209.396 368.415 213.24 367.155 213.034 357.51C212.827 347.864 206.84 338.96 207.438 326.31Z" fill="#B8969C"/>
<path d="M80.3391 111.544C83.097 114.073 85.8082 118.377 87.3855 121.305C88.7726 123.879 86.2607 127.012 83.621 128.271C79.6735 130.153 74.667 132.442 71.6089 132.107C67.0897 131.612 66.8587 127.399 65.6296 123.706C64.4006 120.013 64.6942 116.513 65.4635 113.642C66.2329 110.77 67.8499 110.345 69.4764 109.349C71.1029 108.354 71.4237 108.225 73.5963 108.664C75.7688 109.103 77.5813 109.016 80.3391 111.544Z" fill="#CACACA"/>
<path d="M67.58 112.42C67.52 112.479 67.4645 112.542 67.4132 112.608C66.5123 113.762 66.5957 115.425 66.4319 116.88C66.2395 118.589 66.0752 120.772 66.8994 122.973C68.1512 126.314 69.8787 130.284 72.8787 131.374C75.8787 132.464 80.6139 131.085 81.8996 128.423C83.1853 125.762 80.6124 121.208 79.307 118.067C78.0016 114.926 77.2277 114.074 75.3725 112.719C73.5172 111.363 71.589 111.347 70.0305 111.287C68.4721 111.227 68.2622 111.744 67.58 112.42Z" fill="#B4B4B4"/>
<path d="M83.8089 114.621C83.7399 112.742 86.4467 113.324 87.1061 113C89.2716 111.862 90.6934 107.091 97.9338 107.313C105.174 107.535 116.36 111.463 123.308 114.112C130.256 116.761 134.438 116.378 132.674 120.558C130.91 124.737 118.796 133.085 114.488 135.008C110.18 136.931 112.551 131.555 111.132 130.173C109.713 128.791 109.076 128.763 107.394 128.098C105.711 127.432 106.589 127.095 102.72 126.845C98.8503 126.596 91.1006 127.74 88.0469 126.85C84.9932 125.96 88.2987 124.842 87.4511 122.396C86.6035 119.95 83.8779 116.501 83.8089 114.621Z" fill="#606C7D"/>
<path d="M87.3685 118.068C86.1637 118.363 84.9303 117.703 84.5063 116.538V116.538C84.103 115.429 84.5537 114.191 85.5754 113.601L86.8755 112.851C87.0885 112.728 87.3118 112.624 87.5429 112.539L96.6162 109.238C98.238 108.648 99.9849 108.488 101.687 108.773L115.345 111.061C116.368 111.232 117.34 111.629 118.189 112.224L122.79 115.443C124.709 116.786 124.631 119.654 122.641 120.89V120.89C121.335 121.701 119.641 121.491 118.573 120.386L118.038 119.833C117.749 119.534 117.417 119.279 117.053 119.077L112.552 116.579C110.965 115.697 109.167 115.265 107.351 115.328L98.1505 115.648C97.4668 115.672 96.7873 115.765 96.1227 115.928L87.3685 118.068Z" fill="#93A2B7"/>
<path d="M120.404 122.28C121.573 121.047 122.902 120.239 123.995 119.631C125.104 119.014 126.295 118.521 127.507 118.145C129.36 117.571 131.84 116.807 133.658 116.885C136.205 116.995 137.117 117.597 138.397 119.229C139.678 120.86 139.863 122.842 140.06 125.042C140.258 127.242 139.851 128.493 139.386 130.229C138.921 131.965 139.05 132.286 137.734 133.722C136.419 135.159 135.314 136.08 132.809 137.413C130.305 138.745 128.122 139.95 125.213 140.387C122.305 140.824 120.431 140.608 118.268 139.599C116.105 138.59 114.815 137.529 114.399 135.342C113.983 133.155 114.987 131.277 116.188 128.665C117.389 126.052 118.509 124.277 120.404 122.28Z" fill="#CACACA"/>
<path d="M130.67 120.021C132.916 119.12 134.233 119.544 135.124 119.425C135.558 117.538 138.038 121.637 138.749 123.259C139.459 124.881 139.111 125.646 138.677 127.534C138.31 129.129 138.936 130.071 137.556 131.715C137.225 132.751 136.878 133.382 136.578 132.697C133.957 135 128.828 137.849 125.571 139.051C122.315 140.254 121.808 139.474 120.295 138.711C118.782 137.948 118.19 137.217 118.006 135.235C117.821 133.253 118.193 131.063 119.372 128.802C120.55 126.541 121.637 125.688 123.897 123.931C126.157 122.175 128.425 120.922 130.67 120.021Z" fill="#B4B4B4"/>
<path d="M139.176 122.202C139.131 122.019 139.132 121.828 139.181 121.646V121.646C139.298 121.209 139.67 120.887 140.12 120.833L141.223 120.701L145.141 119.753C145.334 119.706 145.516 119.625 145.68 119.513L146.41 119.013C147.137 118.515 148.129 119.001 148.182 119.88V119.88C148.189 120.002 148.177 120.124 148.145 120.242L147.539 122.503C147.261 123.541 146.817 124.528 146.225 125.425L145.825 126.031C145.484 126.547 145.096 127.031 144.666 127.475L143.213 128.977C142.965 129.233 142.672 129.441 142.348 129.591L141.104 130.166C140.679 130.362 140.176 130.256 139.867 129.905V129.905C139.674 129.685 139.581 129.396 139.609 129.105L139.855 126.568C139.932 125.779 139.872 124.982 139.68 124.213L139.176 122.202Z" fill="#D8CABE"/>
<path d="M107.356 85.5041C108.195 83.4389 103.466 83.46 102.974 81.8251C102.067 78.8142 106.753 76.9903 109.842 76.4062C118.67 74.7371 133.114 71.9577 139.123 71.1143C146.485 70.0811 139.861 72.0993 141.704 72.1639C143.548 72.2284 145.883 70.9933 148.34 71.4371C150.798 71.8809 151.63 72.247 153.992 74.3828C156.354 76.5187 159.374 79.4034 160.15 82.1162C160.926 84.829 159.727 86.3683 157.872 87.9469C156.018 89.5255 152.608 88.898 150.879 90.0092C149.149 91.1204 150.475 92.0482 149.227 93.5029C147.978 94.9575 146.275 96.5051 144.636 97.2824C142.996 98.0597 140.301 94.7613 141.029 97.3894C141.756 100.018 146.66 106.556 148.271 110.423C149.883 114.29 149.232 115.118 149.088 116.725C148.943 118.333 149.559 117.639 147.549 118.46C145.54 119.281 140.987 120.781 139.041 120.832C137.095 120.883 138.896 119.505 137.819 118.716C136.742 117.926 136.089 116.892 133.658 116.885C131.226 116.877 130.043 119.423 125.662 118.679C121.282 117.934 116.726 114.638 111.753 113.163C106.781 111.687 104.416 111.698 100.801 111.302C97.1857 110.905 96.5669 110.811 93.6764 111.182C90.786 111.552 87.398 114.581 86.3488 113.154C85.2996 111.728 87.4214 106.213 88.4304 104.051C89.4394 101.888 89.3247 104.72 91.3937 102.34C93.4628 99.9598 95.5833 95.5182 98.7756 92.1511C101.968 88.784 106.516 87.5693 107.356 85.5041Z" fill="#767A67"/>
<path d="M100.337 73.0263L100.265 72.9515C99.5654 72.2267 98.9579 71.4104 98.2933 70.6537C96.9931 69.1731 95.0331 67.2838 94.1575 62.6445C93.0336 56.6894 91.1908 48.6094 93.5809 42.0931C95.9711 35.5767 100.935 32.5412 106.108 30.0627C111.281 27.5841 115.306 28.5908 119.446 29.7001C123.586 30.8094 123.167 30.7688 126.808 35.6092C130.449 40.4495 134.918 49.9487 137.652 53.9018C140.386 57.8549 139.538 55.4092 140.478 55.3747C141.417 55.3402 141.49 53.9999 142.35 53.7293C143.21 53.4587 143.473 52.7421 144.776 54.0217C146.08 55.3012 148.504 57.7399 148.866 60.1272C149.228 62.5144 147.418 64.4627 146.588 65.9579C145.758 67.4531 145.878 67.2707 144.716 67.6033C143.553 67.9359 142.219 66.5049 140.775 67.6209C139.331 68.7368 140.859 71.5797 137.495 73.1832C134.131 74.7867 127.189 74.7873 123.955 75.6384C120.721 76.4895 122.387 76.1486 121.325 77.4387C120.264 78.7289 120.021 81.2401 118.648 82.0889C117.276 82.9378 116.043 82.4643 114.463 81.6832C112.883 80.902 112.079 78.8259 110.749 78.1831C109.418 77.5403 109.096 78.7422 107.809 78.469C106.523 78.1959 106.037 78.1374 104.316 76.8172C103.077 75.8677 101.504 74.236 100.337 73.0263Z" fill="#D8CABE"/>
<path d="M99.7295 54.0035C99.3721 53.5177 99.184 52.928 99.1942 52.325L99.1961 52.2105C99.2003 51.9576 99.2356 51.7061 99.3011 51.4618L99.5156 50.6611L100.195 50.1612C100.336 50.0579 100.491 49.9769 100.656 49.9211V49.9211C101.232 49.7262 101.868 49.855 102.323 50.2583L102.744 50.6316V50.6316C103.471 51.2759 103.845 52.2291 103.751 53.1957L103.711 53.6116C103.702 53.7036 103.686 53.7947 103.662 53.884V53.884C103.517 54.4259 103.102 54.8622 102.571 55.042V55.042C102.36 55.1132 102.135 55.1435 101.913 55.1292L101.725 55.117C100.942 55.0665 100.222 54.6726 99.7569 54.0408L99.7295 54.0035Z" fill="#5B5F43"/>
<path d="M117.143 54.1025C116.796 53.795 116.544 53.395 116.416 52.9494L116.328 52.6386C116.151 52.0205 116.145 51.3659 116.312 50.7449L116.326 50.6924L116.791 50.2833C117.102 50.0103 117.464 49.8014 117.855 49.6689V49.6689C118.243 49.5378 118.652 49.4839 119.061 49.5102L120.106 49.5776C120.169 49.5817 120.232 49.592 120.293 49.6085V49.6085C120.646 49.703 120.915 49.9887 120.988 50.3464L121.205 51.4064C121.29 51.8193 121.277 52.2462 121.168 52.6533L121.016 53.2192C120.876 53.7431 120.533 54.1899 120.063 54.4611V54.4611C119.714 54.663 119.312 54.7569 118.909 54.7309L118.603 54.7111C118.062 54.6762 117.548 54.4621 117.143 54.1025V54.1025Z" fill="#5B5F43"/>
<path fill-rule="evenodd" clip-rule="evenodd" d="M117.281 47.4633C117.636 47.0626 118.187 46.8971 118.704 47.0357L119.736 47.3121C119.921 47.3616 120.03 47.5511 119.981 47.7355V47.7355C119.931 47.9199 119.742 48.0293 119.557 47.9799L118.781 47.7718C118.36 47.6591 117.912 47.7937 117.623 48.1195L117.317 48.4638C117.283 48.5031 117.257 48.5499 117.244 48.6006L116.997 49.5208C116.985 49.5683 117.041 49.6034 117.078 49.571V49.571C117.083 49.5666 117.089 49.5633 117.095 49.5612L117.744 49.3415C118.175 49.1959 118.629 49.136 119.083 49.1653L120.128 49.2327C120.214 49.2382 120.299 49.2523 120.383 49.2746V49.2746C120.862 49.403 121.227 49.7911 121.327 50.2771L121.544 51.3371C121.639 51.8026 121.625 52.2838 121.502 52.7428L121.35 53.3086C121.186 53.9211 120.785 54.4434 120.236 54.7604V54.7604C119.827 54.9964 119.358 55.1062 118.887 55.0758L118.58 55.056C117.963 55.0162 117.376 54.7717 116.913 54.3611V54.3611C116.517 54.01 116.229 53.5533 116.084 53.0445L115.995 52.7337C115.801 52.0553 115.795 51.337 115.978 50.6555L116.507 48.6785C116.594 48.3553 116.755 48.0567 116.977 47.8063L117.281 47.4633ZM116.96 50.5945C116.746 50.7826 116.593 51.0297 116.519 51.3049V51.3049C116.452 51.5575 116.454 51.8238 116.526 52.0752L116.749 52.8544C116.858 53.2368 117.074 53.58 117.372 53.8439V53.8439C117.72 54.1525 118.161 54.3362 118.625 54.3662L118.931 54.3859C119.266 54.4075 119.6 54.3295 119.89 54.1617V54.1617C120.281 53.9363 120.566 53.5651 120.682 53.1297L120.834 52.5638C120.929 52.2086 120.94 51.836 120.866 51.4757L120.65 50.4157C120.603 50.1862 120.43 50.003 120.204 49.9423V49.9423C120.164 49.9318 120.124 49.9252 120.083 49.9225L119.038 49.8551C118.675 49.8317 118.311 49.8797 117.966 49.9963L117.842 50.0382C117.575 50.1285 117.329 50.2707 117.117 50.4566L116.96 50.5945ZM101.84 47.308C102.067 47.2616 102.304 47.3072 102.497 47.4349L102.938 47.7261C103.098 47.8313 103.141 48.0457 103.036 48.205V48.205C102.931 48.3643 102.717 48.4082 102.557 48.303L102.285 48.1234C102.137 48.0253 101.955 47.9902 101.781 48.0259L101.499 48.0835C101.086 48.168 100.735 48.4384 100.549 48.8161L100.156 49.6094C100.154 49.6132 100.153 49.6171 100.152 49.6213L100.147 49.6386C100.133 49.6917 100.194 49.7331 100.238 49.7005V49.7005C100.243 49.6969 100.248 49.6942 100.254 49.6922L100.545 49.5936C101.239 49.3591 102.005 49.514 102.552 49.9997L103.049 50.4399C103.811 51.1156 104.203 52.115 104.105 53.1287L104.055 53.645C104.044 53.7559 104.024 53.8658 103.995 53.9734V53.9734C103.82 54.627 103.322 55.1526 102.681 55.3694V55.3694C102.428 55.455 102.157 55.4913 101.891 55.4741L101.702 55.4619C100.818 55.4049 100.004 54.9596 99.4782 54.2456L99.4508 54.2083C99.0486 53.6615 98.8369 52.9979 98.8483 52.3192L98.8503 52.2046C98.855 51.9235 98.8942 51.6439 98.967 51.3723L99.4178 49.6897C99.4748 49.4771 99.5526 49.2707 99.6502 49.0734L99.9289 48.5097C100.21 47.9407 100.738 47.5335 101.36 47.4063L101.84 47.308ZM100.338 50.485C100.001 50.7327 99.7589 51.0877 99.6507 51.4915L99.6175 51.6155C99.5708 51.7899 99.5456 51.9693 99.5426 52.1497L99.5395 52.3308C99.5307 52.8582 99.6951 53.3738 100.008 53.7987L100.035 53.8359C100.439 54.3855 101.066 54.7282 101.747 54.7721L101.935 54.7842C102.112 54.7956 102.289 54.7723 102.456 54.7156L102.468 54.7118C102.89 54.569 103.212 54.2248 103.328 53.7945V53.7945C103.347 53.7236 103.36 53.6513 103.367 53.5782L103.417 53.062C103.494 52.2685 103.186 51.486 102.59 50.9571L102.094 50.5169C101.732 50.1959 101.225 50.0934 100.767 50.2485V50.2485C100.635 50.2929 100.511 50.3574 100.4 50.4397L100.338 50.485Z" fill="#413D30"/>
<path d="M123.668 72.3184C122.126 74.0037 120.052 75.1098 117.793 75.4526L116.775 75.6071C115.807 75.7539 114.824 75.758 113.855 75.6192L108.736 74.8853C107.393 74.6929 106.104 74.2293 104.946 73.5229L104.042 72.9715C102.366 71.9488 101.028 70.4553 100.195 68.6772L98.3658 64.7718C98.0101 64.0127 97.7514 63.2118 97.5956 62.3881L96.0038 53.9718C95.9475 53.6741 95.6787 53.4647 95.3763 53.4829V53.4829C95.06 53.5018 94.8126 53.7628 94.8105 54.0797L94.7693 60.3055C94.7631 61.2477 94.9404 62.1821 95.2914 63.0566L97.6248 68.8698C97.8602 69.4564 98.1507 70.0193 98.4925 70.5511L99.8202 72.6172C100.44 73.5815 101.221 74.4321 102.129 75.1317L103.461 76.1587C104.029 76.5965 104.643 76.9719 105.291 77.2784L106.64 77.9161C107.405 78.278 108.254 78.4258 109.097 78.3438V78.3438C110.166 78.2399 111.244 78.5098 112.139 79.1014V79.1014C112.426 79.2908 112.694 79.5124 112.933 79.7596L113.861 80.7198C113.936 80.7973 114.001 80.8838 114.055 80.9772V80.9772C114.305 81.4099 114.778 81.6643 115.277 81.6344L116.356 81.5696C116.547 81.5581 116.739 81.5775 116.925 81.6272L116.996 81.6462C117.908 81.8907 118.846 81.3491 119.091 80.4365V80.4365C119.153 80.2052 119.263 79.9896 119.413 79.8035L120.599 78.337C121.081 77.7414 121.647 77.2189 122.279 76.7862V76.7862C123.378 76.0333 124.651 75.5708 125.977 75.4418L126.147 75.4252C126.644 75.3769 127.136 75.2851 127.618 75.1508L134.933 73.1112C135.243 73.0247 135.567 72.9963 135.887 73.0274V73.0274C136.873 73.1229 137.828 72.6535 138.354 71.8149L138.793 71.1143C139.537 69.9286 140.853 69.2249 142.252 69.2642L143.461 69.2981C145.883 69.3661 148.114 67.9868 149.135 65.7894L151.482 60.7394C152.624 58.2816 152.178 55.3782 150.351 53.3762L148.662 51.5243C147.392 50.1324 145.295 49.8786 143.729 50.9272L142.828 51.5308C141.485 52.4302 139.662 52.0061 138.854 50.6066V50.6066C138.28 49.6126 137.157 49.0708 136.021 49.2404L134.165 49.5178C131.401 49.9308 129.375 52.3349 129.437 55.1291L129.499 57.9683C129.512 58.5741 129.463 59.1797 129.351 59.7754L128.386 64.9323C128.043 66.7668 127.193 68.4686 125.933 69.8452L123.668 72.3184Z" fill="black" fill-opacity="0.12"/>
<path d="M94.2678 26.1743C95.4461 23.9136 97.074 21.8449 99.6641 19.3899C101.747 17.4159 100.747 16.9361 101.708 19.6403C101.917 20.2305 101.942 20.8212 101.643 21.3516C100.416 23.5277 100.706 23.2475 101.083 24.7798C101.459 26.3121 103.224 29.0751 103.527 29.0131C103.83 28.9511 102.35 26.1929 102.597 24.4699C102.844 22.7469 103.357 22.1686 104.762 20.398C106.166 18.6273 107.246 17.2705 109.621 15.6168C111.997 13.9631 113.182 13.2787 116.639 12.1295C120.096 10.9804 123.25 9.89314 126.906 9.8708C130.562 9.84846 131.171 10.5127 134.919 12.0178C138.666 13.523 142.196 15.0412 145.644 17.3966C149.092 19.7519 150.013 20.8573 152.16 23.7945C154.307 26.7316 155.179 27.7524 156.38 32.0821C157.582 36.4119 157.282 41.2698 158.168 45.4433C159.054 49.6169 159.564 51.185 160.808 52.9498C162.053 54.7147 162.713 54.3904 164.392 54.2678C166.071 54.1451 168.415 52.34 169.203 52.3365C169.991 52.333 169.353 53.3787 168.333 54.2502C167.312 55.1218 165.934 56.2557 164.099 56.6943C162.264 57.133 160.474 56.8681 159.157 56.4435C157.839 56.0189 158.666 53.7355 157.511 54.5712C156.357 55.407 154.718 59.1189 153.385 60.6224C152.052 62.1259 150.61 61.0956 150.845 62.0889C151.08 63.0822 153.466 63.7931 154.559 65.5889C155.652 67.3848 155.998 68.7657 156.311 71.0683C156.625 73.3708 157.053 76.8492 156.126 77.1019C155.2 77.3546 155.355 74.1041 151.679 72.3318C149.231 71.1515 144.88 69.8425 141.57 69.024C142.403 70.5243 142.886 71.5159 143.115 72.1318C143.603 73.4415 142.942 73.0523 142.056 72.243C142.051 72.2469 142.045 72.2504 142.038 72.2535C141.633 72.4311 137.817 71.9812 135.719 69.1288C133.62 66.2764 132.605 62.8552 131.546 57.9913C130.488 53.1273 131.072 48.2742 130.426 44.809C129.78 41.3437 130.768 42.4671 128.316 40.6651C125.865 38.8632 120.754 37.6369 118.169 35.7992C115.584 33.9615 116.717 32.4043 115.391 31.4764C114.065 30.5486 114.093 29.9119 111.54 31.1601C108.987 32.4084 105.385 35.1649 102.626 37.7177C99.8662 40.2704 99.1889 40.6614 97.7422 43.9238C96.2955 47.1861 95.7217 50.396 95.3923 54.0293C95.064 57.6497 95.296 58.6488 96.0867 62.0537L96.0951 62.0901C96.8925 65.5244 98.8609 69.1292 99.3794 71.2005C99.898 73.2718 99.86 71.5439 98.6877 72.4465C97.5155 73.3491 95.6385 75.2794 93.5183 75.7133C91.3982 76.1471 89.4355 75.1919 88.0869 74.6158C86.7384 74.0397 86.3569 72.7924 86.7754 72.833C87.194 72.8736 88.5806 75.1775 90.1796 74.8187C91.7787 74.4599 93.7583 72.4139 94.7708 71.0391C95.7832 69.6643 96.6845 71.9097 95.242 67.9448C93.7995 63.9799 89.0222 55.9009 87.5583 51.2145C86.0944 46.5282 87.4836 46.6857 87.9226 44.5132C88.3616 42.3406 88.2232 42.5898 89.7533 40.3518C91.2834 38.1138 94.7691 35.2546 95.5729 33.323C96.3768 31.3913 94.0336 32.1233 93.7726 30.6935C93.5116 29.2638 93.0895 28.435 94.2678 26.1743Z" fill="#413D30"/>
<path fill-rule="evenodd" clip-rule="evenodd" d="M109.118 63.8693C109.644 63.1335 110.703 63.0436 111.345 63.6802L112.143 64.4704C112.278 64.6048 112.279 64.8236 112.145 64.9592V64.9592C112.01 65.0948 111.792 65.0958 111.656 64.9614L111.124 64.4341C110.645 63.9594 109.855 64.0265 109.463 64.575L108.931 65.3199C108.82 65.4752 108.604 65.5111 108.448 65.4001V65.4001C108.293 65.2891 108.257 65.0732 108.368 64.9179L109.118 63.8693Z" fill="#413D30"/>
<path d="M132.656 116.617C131.589 115.257 132.46 113.344 132.728 112.342C133.006 111.304 134.535 111.5 135.564 111.192C139.01 110.16 145.069 107.952 147.627 108.82C150.645 109.843 149.527 114.553 149.088 116.726C148.649 118.898 147.442 118.861 145.433 119.682C143.423 120.504 140.515 120.941 139.041 120.833C137.567 120.724 139.34 119.982 138.063 119.139C136.786 118.296 133.723 117.976 132.656 116.617Z" fill="#9DA388"/>
<path d="M111.135 90.0955C107.573 89.4989 106.6 91.5284 106.258 90.9357C104.678 88.1997 111.309 87.1049 114.462 87.3016C115.921 87.3926 117.539 87.5757 119.22 87.9677C123.329 88.9256 127.687 90.0218 129.969 91.9215C132.251 93.8212 131.811 97.0669 130.631 97.4663C129.45 97.8656 127.966 95.3924 124.067 93.9183C120.168 92.4441 114.697 90.692 111.135 90.0955Z" fill="white"/>
<path d="M131.86 104.791C131.894 105.62 132.032 106.442 132.269 107.238L133.42 111.096L133.45 111.245C133.524 111.608 133.358 111.978 133.037 112.163V112.163C132.839 112.278 132.695 112.466 132.636 112.686L132.409 113.533C132.324 113.849 132.297 114.178 132.329 114.504L132.417 115.412C132.502 116.287 131.913 117.084 131.052 117.26V117.26L127.866 117.873C126.381 118.158 124.85 118.103 123.39 117.712L122.042 117.351C121.844 117.298 121.651 117.23 121.464 117.148V117.148C119.357 116.221 118.46 113.714 119.501 111.66L120.424 109.84C120.554 109.584 120.665 109.318 120.757 109.046L124.15 98.9502L125.488 93.956C125.667 93.2868 125.988 92.6637 126.428 92.1287L127.972 90.2521C128.241 89.9251 128.676 89.7856 129.085 89.8952V89.8952C129.49 90.0037 129.795 90.3371 129.868 90.7501L130.744 95.7074L131.512 99.4614C131.62 99.9866 131.685 100.52 131.707 101.055L131.86 104.791Z" fill="black" fill-opacity="0.24"/>
<path d="M105.498 91.9321C105.589 91.7822 105.672 91.6425 105.745 91.5141C105.824 89.9718 104.66 86.3984 104.537 83.8173C103.137 83.1002 102.078 82.3102 104.733 81.9389C105.559 79.6554 108.083 80.1171 109.878 80.097C111.514 80.0787 113.641 80.6677 113.737 81.5676C119.196 81.5478 125.43 81.7193 128.712 81.923C125.07 81.0904 119.939 82.0773 120.007 81.022C120.076 79.9667 125.77 77.413 129.052 76.6466C132.335 75.8802 133.5 77.4089 136.421 77.1898C139.343 76.9706 140.979 75.4051 143.66 75.5508C146.34 75.6965 149.335 77.0717 149.824 77.9183C150.313 78.765 148.781 79.1416 146.104 79.7841C143.427 80.4266 141.658 80.8832 136.439 81.1307C131.22 81.3783 123.294 81.0437 120.007 81.022C119.939 82.0773 125.07 81.0904 128.712 81.923C131.637 82.1045 132.288 82.3498 132.383 82.6609C134.386 83.0825 136.214 83.6468 138.215 85.1851C141.361 87.6024 142.794 92.1373 144.439 94.0095C146.084 95.8818 146.79 93.7808 146.442 94.5463C146.094 95.3118 143.994 97.5403 142.698 97.8371C141.402 98.1339 141.121 97.8441 139.961 96.0303C138.801 94.2165 138.222 90.7692 136.897 88.7682C135.573 86.7672 134.21 87.0461 133.338 86.0253C132.467 85.0046 133.465 84.4847 132.54 83.6643C132.101 83.2753 132.468 82.9414 132.383 82.6609C131.238 82.4201 130.036 82.2258 128.712 81.923C125.43 81.7193 119.196 81.5478 113.737 81.5676C113.747 81.655 113.737 81.7453 113.705 81.8383C113.352 82.8888 109.498 84.7188 108.113 85.3495C106.727 85.9801 107.453 85.6737 106.777 84.9916C106.51 84.7223 105.451 84.2853 104.537 83.8173C104.66 86.3984 105.824 89.9718 105.745 91.5141C105.698 92.4508 105.666 92.2509 105.498 91.9321C104.572 93.4497 102.782 96.0194 101.684 98.6563C100.479 101.554 100.827 104.796 99.7163 106.001C98.6061 107.207 96.3096 106.162 96.1332 104.683C95.9569 103.205 97.215 101.18 98.8346 98.6084C100.454 96.0365 102.849 93.2428 104.231 91.824C104.958 91.0774 105.312 91.5781 105.498 91.9321Z" fill="black" fill-opacity="0.25"/>
<path d="M111.589 83.06C112.548 81.8856 113.549 82.154 114.039 81.9275C116.198 79.2137 118.72 79.9734 118.815 82.289C121.286 82.495 117.023 92.9612 116.071 95.712C115.12 98.4628 114.534 96.3736 114.223 95.9324C113.912 95.4912 113.564 96.2567 114.515 93.5059C115.467 90.755 118.91 84.6047 118.815 82.289C118.72 79.9734 116.198 79.2137 114.039 81.9275C111.881 84.6412 109.524 93.1704 108.189 95.7471C106.855 98.3238 107.156 96.4004 107.367 94.811C107.578 93.2215 108.401 90.1499 109.245 87.7997C110.09 85.4495 110.63 84.2345 111.589 83.06Z" fill="#9DA388"/>
<path d="M90.6364 102.495C92.4524 103.196 98.1687 104.298 99.7163 106.001C101.226 107.662 101.058 109.486 98.568 110.902C99.1933 110.819 99.5767 110.781 98.3744 111.009C96.1699 112.189 90.7642 113.873 87.8306 113.61C86.5934 114.311 84.8035 113.421 86.3487 113.154C84.3778 111.696 87.6622 105.849 88.5197 103.717C89.3772 101.585 90.6162 100.7 90.6364 102.495Z" fill="#9DA388"/>
<path opacity="0.5" d="M117.297 25.8131C119.902 26.5109 126.393 27.3914 130.318 29.302C134.244 31.2126 135.187 31.9663 136.924 35.366C138.661 38.7658 139.196 41.8434 139.004 46.3007C138.811 50.7579 137.072 56.4468 135.962 57.6522C134.852 58.8577 134.113 54.9381 133.452 52.3279C132.792 49.7176 133.498 47.6166 132.66 44.6009C131.822 41.5852 132.55 40.2057 129.262 37.2494C125.975 34.2931 119.187 32.1164 116.224 29.8195C113.261 27.5226 114.233 26.5664 114.448 25.7651C114.586 25.2497 117.079 25.7799 117.97 25.9905C117.813 25.95 117.592 25.8921 117.297 25.8131C114.319 25.0149 104.651 21.9498 99.4747 21.45C98.8262 23.1826 97.8614 25.5228 97.6582 26.9919C97.3528 29.2002 96.3512 28.9318 98.1886 30.3545C100.026 31.7773 104.963 31.6018 106.254 32.6632C107.544 33.7245 105.935 35.3646 104.639 35.6614C103.343 35.9582 102.167 36.0725 100.364 35.5894C99.019 35.229 97.7707 34.6554 96.6803 33.9743C95.9614 33.5252 95.4355 32.8988 94.9419 32.2098C94.1733 31.137 93.7559 29.8186 93.9907 28.52C94.1202 27.8037 94.3075 26.9848 94.5683 26.2026C95.421 24.3556 96.2156 23.9375 98.088 21.3816C98.4135 20.9678 100.162 18.3623 100.076 19.4844C100.047 19.86 99.801 20.5781 99.4747 21.45C104.651 21.9498 114.319 25.0149 117.297 25.8131Z" fill="#5E5C53"/>
<path opacity="0.5" d="M119.506 16.1186C117.031 17.5477 115.91 20.2246 115.063 22.1108C114.59 23.1641 113.74 23.9049 112.728 24.4617C112.027 24.8475 111.739 25.2854 113.728 25.6635C117.405 26.3625 126.334 25.8923 132.652 27.1556C138.969 28.4189 141.546 29.7535 145.315 31.98C149.084 34.2066 149.594 35.7747 151.497 38.2885C153.4 40.8022 154.298 45.194 154.829 44.5489C155.36 43.9039 155.686 39.4824 154.15 35.0632C152.615 30.644 151.827 26.6397 147.152 22.4528C142.477 18.2658 136.304 15.3951 130.775 14.1283C125.246 12.8615 122.808 14.2123 119.506 16.1186Z" fill="#5E5C53"/>
<path opacity="0.2" d="M90.3521 126.755C89.046 126.809 87.914 125.858 87.7406 124.563V124.563C87.5742 123.318 88.3454 122.14 89.5524 121.795L95.5887 120.068C96.6156 119.774 97.6836 119.65 98.7505 119.701L103.63 119.934C104.713 119.986 105.781 120.214 106.791 120.609L113.087 123.068C113.697 123.307 114.25 123.67 114.711 124.135L116.109 125.546C116.857 126.3 116.973 127.475 116.388 128.361V128.361C116.255 128.562 116.156 128.783 116.093 129.016L115.863 129.876C115.32 131.903 112.655 132.367 111.459 130.644V130.644C111.243 130.334 110.96 130.077 110.63 129.894L108.47 128.695C107.755 128.298 106.994 127.99 106.204 127.779L103.862 127.151C103.103 126.948 102.322 126.835 101.537 126.814L93.8358 126.612L90.3521 126.755Z" fill="#4A4F56"/>
</svg>
