<svg width="200" height="18" viewBox="0 0 200 18" fill="none" xmlns="http://www.w3.org/2000/svg">
<path d="M0.602 10.136C0.602 9.352 0.760667 8.666 1.078 8.078C1.39533 7.48067 1.82933 7.01867 2.38 6.692C2.94 6.36533 3.56067 6.202 4.242 6.202C4.914 6.202 5.49733 6.34667 5.992 6.636C6.48667 6.92533 6.85533 7.28933 7.098 7.728V6.328H8.386V14H7.098V12.572C6.846 13.02 6.468 13.3933 5.964 13.692C5.46933 13.9813 4.89067 14.126 4.228 14.126C3.54667 14.126 2.93067 13.958 2.38 13.622C1.82933 13.286 1.39533 12.8147 1.078 12.208C0.760667 11.6013 0.602 10.9107 0.602 10.136ZM7.098 10.15C7.098 9.57133 6.98133 9.06733 6.748 8.638C6.51467 8.20867 6.19733 7.882 5.796 7.658C5.404 7.42467 4.97 7.308 4.494 7.308C4.018 7.308 3.584 7.42 3.192 7.644C2.8 7.868 2.48733 8.19467 2.254 8.624C2.02067 9.05333 1.904 9.55733 1.904 10.136C1.904 10.724 2.02067 11.2373 2.254 11.676C2.48733 12.1053 2.8 12.4367 3.192 12.67C3.584 12.894 4.018 13.006 4.494 13.006C4.97 13.006 5.404 12.894 5.796 12.67C6.19733 12.4367 6.51467 12.1053 6.748 11.676C6.98133 11.2373 7.098 10.7287 7.098 10.15ZM11.9929 7.742C12.2449 7.30333 12.6183 6.93933 13.1129 6.65C13.6169 6.35133 14.2003 6.202 14.8629 6.202C15.5443 6.202 16.1603 6.36533 16.7109 6.692C17.2709 7.01867 17.7096 7.48067 18.0269 8.078C18.3443 8.666 18.5029 9.352 18.5029 10.136C18.5029 10.9107 18.3443 11.6013 18.0269 12.208C17.7096 12.8147 17.2709 13.286 16.7109 13.622C16.1603 13.958 15.5443 14.126 14.8629 14.126C14.2096 14.126 13.6309 13.9813 13.1269 13.692C12.6323 13.3933 12.2543 13.0247 11.9929 12.586V17.64H10.7189V6.328H11.9929V7.742ZM17.2009 10.136C17.2009 9.55733 17.0843 9.05333 16.8509 8.624C16.6176 8.19467 16.3003 7.868 15.8989 7.644C15.5069 7.42 15.0729 7.308 14.5969 7.308C14.1303 7.308 13.6963 7.42467 13.2949 7.658C12.9029 7.882 12.5856 8.21333 12.3429 8.652C12.1096 9.08133 11.9929 9.58067 11.9929 10.15C11.9929 10.7287 12.1096 11.2373 12.3429 11.676C12.5856 12.1053 12.9029 12.4367 13.2949 12.67C13.6963 12.894 14.1303 13.006 14.5969 13.006C15.0729 13.006 15.5069 12.894 15.8989 12.67C16.3003 12.4367 16.6176 12.1053 16.8509 11.676C17.0843 11.2373 17.2009 10.724 17.2009 10.136ZM19.8839 10.15C19.8839 9.35667 20.0425 8.666 20.3599 8.078C20.6772 7.48067 21.1159 7.01867 21.6759 6.692C22.2452 6.36533 22.8939 6.202 23.6219 6.202C24.5645 6.202 25.3392 6.43067 25.9459 6.888C26.5619 7.34533 26.9679 7.98 27.1639 8.792H25.7919C25.6612 8.32533 25.4045 7.95667 25.0219 7.686C24.6485 7.41533 24.1819 7.28 23.6219 7.28C22.8939 7.28 22.3059 7.532 21.8579 8.036C21.4099 8.53067 21.1859 9.23533 21.1859 10.15C21.1859 11.074 21.4099 11.788 21.8579 12.292C22.3059 12.796 22.8939 13.048 23.6219 13.048C24.1819 13.048 24.6485 12.9173 25.0219 12.656C25.3952 12.3947 25.6519 12.0213 25.7919 11.536H27.1639C26.9585 12.32 26.5479 12.95 25.9319 13.426C25.3159 13.8927 24.5459 14.126 23.6219 14.126C22.8939 14.126 22.2452 13.9627 21.6759 13.636C21.1159 13.3093 20.6772 12.8473 20.3599 12.25C20.0425 11.6527 19.8839 10.9527 19.8839 10.15ZM35.0638 4.872L31.1718 14H29.8838L33.8318 4.998H28.4278V3.906H35.0638V4.872ZM36.6284 6.426C36.6937 5.56733 37.025 4.89533 37.6224 4.41C38.2197 3.92467 38.9944 3.682 39.9464 3.682C40.581 3.682 41.127 3.79867 41.5844 4.032C42.051 4.256 42.401 4.564 42.6344 4.956C42.877 5.348 42.9984 5.79133 42.9984 6.286C42.9984 6.86467 42.8304 7.364 42.4944 7.784C42.1677 8.204 41.7384 8.47467 41.2064 8.596V8.666C41.813 8.81533 42.2937 9.10933 42.6484 9.548C43.003 9.98667 43.1804 10.5607 43.1804 11.27C43.1804 11.802 43.059 12.2827 42.8164 12.712C42.5737 13.132 42.2097 13.4633 41.7244 13.706C41.239 13.9487 40.6557 14.07 39.9744 14.07C38.985 14.07 38.173 13.8133 37.5384 13.3C36.9037 12.7773 36.549 12.04 36.4744 11.088H37.7064C37.7717 11.648 38.0004 12.1053 38.3924 12.46C38.7844 12.8147 39.307 12.992 39.9604 12.992C40.6137 12.992 41.1084 12.824 41.4444 12.488C41.7897 12.1427 41.9624 11.6993 41.9624 11.158C41.9624 10.458 41.729 9.954 41.2624 9.646C40.7957 9.338 40.091 9.184 39.1484 9.184H38.8264V8.12H39.1624C40.021 8.11067 40.6697 7.97067 41.1084 7.7C41.547 7.42 41.7664 6.99067 41.7664 6.412C41.7664 5.91733 41.603 5.52067 41.2764 5.222C40.959 4.92333 40.5017 4.774 39.9044 4.774C39.3257 4.774 38.859 4.92333 38.5044 5.222C38.1497 5.52067 37.9397 5.922 37.8744 6.426H36.6284ZM52.4789 16.604C51.5829 15.7267 50.8829 14.6113 50.3789 13.258C49.8843 11.9047 49.6369 10.444 49.6369 8.876C49.6369 7.27067 49.8983 5.77267 50.4209 4.382C50.9529 2.982 51.7089 1.82933 52.6889 0.924H54.0189V1.05C52.9736 2.03 52.1849 3.21067 51.6529 4.592C51.1303 5.964 50.8689 7.392 50.8689 8.876C50.8689 10.3227 51.1163 11.704 51.6109 13.02C52.1149 14.336 52.8476 15.4887 53.8089 16.478V16.604H52.4789ZM55.2643 10.136C55.2643 9.352 55.423 8.666 55.7403 8.078C56.0577 7.48067 56.4917 7.01867 57.0423 6.692C57.6023 6.36533 58.223 6.202 58.9043 6.202C59.5763 6.202 60.1597 6.34667 60.6543 6.636C61.149 6.92533 61.5177 7.28933 61.7603 7.728V6.328H63.0483V14H61.7603V12.572C61.5083 13.02 61.1303 13.3933 60.6263 13.692C60.1317 13.9813 59.553 14.126 58.8903 14.126C58.209 14.126 57.593 13.958 57.0423 13.622C56.4917 13.286 56.0577 12.8147 55.7403 12.208C55.423 11.6013 55.2643 10.9107 55.2643 10.136ZM61.7603 10.15C61.7603 9.57133 61.6437 9.06733 61.4103 8.638C61.177 8.20867 60.8597 7.882 60.4583 7.658C60.0663 7.42467 59.6323 7.308 59.1563 7.308C58.6803 7.308 58.2463 7.42 57.8543 7.644C57.4623 7.868 57.1497 8.19467 56.9163 8.624C56.683 9.05333 56.5663 9.55733 56.5663 10.136C56.5663 10.724 56.683 11.2373 56.9163 11.676C57.1497 12.1053 57.4623 12.4367 57.8543 12.67C58.2463 12.894 58.6803 13.006 59.1563 13.006C59.6323 13.006 60.0663 12.894 60.4583 12.67C60.8597 12.4367 61.177 12.1053 61.4103 11.676C61.6437 11.2373 61.7603 10.7287 61.7603 10.15ZM66.9353 7.378V11.9C66.9353 12.2733 67.0146 12.5393 67.1733 12.698C67.332 12.8473 67.6073 12.922 67.9993 12.922H68.9373V14H67.7893C67.08 14 66.548 13.8367 66.1933 13.51C65.8386 13.1833 65.6613 12.6467 65.6613 11.9V7.378H64.6673V6.328H65.6613V4.396H66.9353V6.328H68.9373V7.378H66.9353ZM70.2549 16.604V16.478C71.2162 15.4887 71.9442 14.336 72.4389 13.02C72.9429 11.704 73.1949 10.3227 73.1949 8.876C73.1949 7.392 72.9289 5.964 72.3969 4.592C71.8742 3.21067 71.0902 2.03 70.0449 1.05V0.924H71.3749C72.3549 1.82933 73.1062 2.982 73.6289 4.382C74.1609 5.77267 74.4269 7.27067 74.4269 8.876C74.4269 10.444 74.1749 11.9047 73.6709 13.258C73.1762 14.6113 72.4809 15.7267 71.5849 16.604H70.2549ZM80.6347 10.15C80.6347 9.35667 80.7934 8.666 81.1107 8.078C81.4281 7.48067 81.8667 7.01867 82.4267 6.692C82.9961 6.36533 83.6447 6.202 84.3727 6.202C85.3154 6.202 86.0901 6.43067 86.6967 6.888C87.3127 7.34533 87.7187 7.98 87.9147 8.792H86.5427C86.4121 8.32533 86.1554 7.95667 85.7727 7.686C85.3994 7.41533 84.9327 7.28 84.3727 7.28C83.6447 7.28 83.0567 7.532 82.6087 8.036C82.1607 8.53067 81.9367 9.23533 81.9367 10.15C81.9367 11.074 82.1607 11.788 82.6087 12.292C83.0567 12.796 83.6447 13.048 84.3727 13.048C84.9327 13.048 85.3994 12.9173 85.7727 12.656C86.1461 12.3947 86.4027 12.0213 86.5427 11.536H87.9147C87.7094 12.32 87.2987 12.95 86.6827 13.426C86.0667 13.8927 85.2967 14.126 84.3727 14.126C83.6447 14.126 82.9961 13.9627 82.4267 13.636C81.8667 13.3093 81.4281 12.8473 81.1107 12.25C80.7934 11.6527 80.6347 10.9527 80.6347 10.15ZM93.1406 14.126C92.422 14.126 91.7686 13.9627 91.1806 13.636C90.602 13.3093 90.1446 12.8473 89.8086 12.25C89.482 11.6433 89.3186 10.9433 89.3186 10.15C89.3186 9.366 89.4866 8.67533 89.8226 8.078C90.168 7.47133 90.6346 7.00933 91.2226 6.692C91.8106 6.36533 92.4686 6.202 93.1966 6.202C93.9246 6.202 94.5826 6.36533 95.1706 6.692C95.7586 7.00933 96.2206 7.46667 96.5566 8.064C96.902 8.66133 97.0746 9.35667 97.0746 10.15C97.0746 10.9433 96.8973 11.6433 96.5426 12.25C96.1973 12.8473 95.726 13.3093 95.1286 13.636C94.5313 13.9627 93.8686 14.126 93.1406 14.126ZM93.1406 13.006C93.598 13.006 94.0273 12.8987 94.4286 12.684C94.83 12.4693 95.152 12.1473 95.3946 11.718C95.6466 11.2887 95.7726 10.766 95.7726 10.15C95.7726 9.534 95.6513 9.01133 95.4086 8.582C95.166 8.15267 94.8486 7.83533 94.4566 7.63C94.0646 7.41533 93.64 7.308 93.1826 7.308C92.716 7.308 92.2866 7.41533 91.8946 7.63C91.512 7.83533 91.204 8.15267 90.9706 8.582C90.7373 9.01133 90.6206 9.534 90.6206 10.15C90.6206 10.7753 90.7326 11.3027 90.9566 11.732C91.19 12.1613 91.498 12.4833 91.8806 12.698C92.2633 12.9033 92.6833 13.006 93.1406 13.006ZM100.204 7.574C100.428 7.13533 100.745 6.79467 101.156 6.552C101.576 6.30933 102.084 6.188 102.682 6.188V7.504H102.346C100.918 7.504 100.204 8.27867 100.204 9.828V14H98.9297V6.328H100.204V7.574ZM108.07 6.188C109.004 6.188 109.76 6.47267 110.338 7.042C110.917 7.602 111.206 8.414 111.206 9.478V14H109.946V9.66C109.946 8.89467 109.755 8.31133 109.372 7.91C108.99 7.49933 108.467 7.294 107.804 7.294C107.132 7.294 106.596 7.504 106.194 7.924C105.802 8.344 105.606 8.95533 105.606 9.758V14H104.332V6.328H105.606V7.42C105.858 7.028 106.199 6.72467 106.628 6.51C107.067 6.29533 107.548 6.188 108.07 6.188ZM120.467 9.87C120.467 10.1127 120.453 10.3693 120.425 10.64H114.293C114.34 11.396 114.597 11.9887 115.063 12.418C115.539 12.838 116.113 13.048 116.785 13.048C117.336 13.048 117.793 12.922 118.157 12.67C118.531 12.4087 118.792 12.0633 118.941 11.634H120.313C120.108 12.3713 119.697 12.9733 119.081 13.44C118.465 13.8973 117.7 14.126 116.785 14.126C116.057 14.126 115.404 13.9627 114.825 13.636C114.256 13.3093 113.808 12.8473 113.481 12.25C113.155 11.6433 112.991 10.9433 112.991 10.15C112.991 9.35667 113.15 8.66133 113.467 8.064C113.785 7.46667 114.228 7.00933 114.797 6.692C115.376 6.36533 116.039 6.202 116.785 6.202C117.513 6.202 118.157 6.36067 118.717 6.678C119.277 6.99533 119.707 7.434 120.005 7.994C120.313 8.54467 120.467 9.17 120.467 9.87ZM119.151 9.604C119.151 9.11867 119.044 8.70333 118.829 8.358C118.615 8.00333 118.321 7.73733 117.947 7.56C117.583 7.37333 117.177 7.28 116.729 7.28C116.085 7.28 115.535 7.48533 115.077 7.896C114.629 8.30667 114.373 8.876 114.307 9.604H119.151ZM123.603 3.64V14H122.329V3.64H123.603ZM127.228 3.64V14H125.954V3.64H127.228ZM136.768 16.604C135.872 15.7267 135.172 14.6113 134.668 13.258C134.173 11.9047 133.926 10.444 133.926 8.876C133.926 7.27067 134.187 5.77267 134.71 4.382C135.242 2.982 135.998 1.82933 136.978 0.924H138.308V1.05C137.263 2.03 136.474 3.21067 135.942 4.592C135.419 5.964 135.158 7.392 135.158 8.876C135.158 10.3227 135.405 11.704 135.9 13.02C136.404 14.336 137.137 15.4887 138.098 16.478V16.604H136.768ZM139.554 10.136C139.554 9.352 139.712 8.666 140.03 8.078C140.347 7.48067 140.781 7.01867 141.332 6.692C141.892 6.36533 142.517 6.202 143.208 6.202C143.805 6.202 144.36 6.342 144.874 6.622C145.387 6.89267 145.779 7.252 146.05 7.7V3.64H147.338V14H146.05V12.558C145.798 13.0153 145.424 13.3933 144.93 13.692C144.435 13.9813 143.856 14.126 143.194 14.126C142.512 14.126 141.892 13.958 141.332 13.622C140.781 13.286 140.347 12.8147 140.03 12.208C139.712 11.6013 139.554 10.9107 139.554 10.136ZM146.05 10.15C146.05 9.57133 145.933 9.06733 145.7 8.638C145.466 8.20867 145.149 7.882 144.748 7.658C144.356 7.42467 143.922 7.308 143.446 7.308C142.97 7.308 142.536 7.42 142.144 7.644C141.752 7.868 141.439 8.19467 141.206 8.624C140.972 9.05333 140.856 9.55733 140.856 10.136C140.856 10.724 140.972 11.2373 141.206 11.676C141.439 12.1053 141.752 12.4367 142.144 12.67C142.536 12.894 142.97 13.006 143.446 13.006C143.922 13.006 144.356 12.894 144.748 12.67C145.149 12.4367 145.466 12.1053 145.7 11.676C145.933 11.2373 146.05 10.7287 146.05 10.15ZM153.016 14.126C152.298 14.126 151.644 13.9627 151.056 13.636C150.478 13.3093 150.02 12.8473 149.684 12.25C149.358 11.6433 149.194 10.9433 149.194 10.15C149.194 9.366 149.362 8.67533 149.698 8.078C150.044 7.47133 150.51 7.00933 151.098 6.692C151.686 6.36533 152.344 6.202 153.072 6.202C153.8 6.202 154.458 6.36533 155.046 6.692C155.634 7.00933 156.096 7.46667 156.432 8.064C156.778 8.66133 156.95 9.35667 156.95 10.15C156.95 10.9433 156.773 11.6433 156.418 12.25C156.073 12.8473 155.602 13.3093 155.004 13.636C154.407 13.9627 153.744 14.126 153.016 14.126ZM153.016 13.006C153.474 13.006 153.903 12.8987 154.304 12.684C154.706 12.4693 155.028 12.1473 155.27 11.718C155.522 11.2887 155.648 10.766 155.648 10.15C155.648 9.534 155.527 9.01133 155.284 8.582C155.042 8.15267 154.724 7.83533 154.332 7.63C153.94 7.41533 153.516 7.308 153.058 7.308C152.592 7.308 152.162 7.41533 151.77 7.63C151.388 7.83533 151.08 8.15267 150.846 8.582C150.613 9.01133 150.496 9.534 150.496 10.15C150.496 10.7753 150.608 11.3027 150.832 11.732C151.066 12.1613 151.374 12.4833 151.756 12.698C152.139 12.9033 152.559 13.006 153.016 13.006ZM160.36 7.378V11.9C160.36 12.2733 160.439 12.5393 160.598 12.698C160.756 12.8473 161.032 12.922 161.424 12.922H162.362V14H161.214C160.504 14 159.972 13.8367 159.618 13.51C159.263 13.1833 159.086 12.6467 159.086 11.9V7.378H158.092V6.328H159.086V4.396H160.36V6.328H162.362V7.378H160.36ZM163.679 16.604V16.478C164.641 15.4887 165.369 14.336 165.863 13.02C166.367 11.704 166.619 10.3227 166.619 8.876C166.619 7.392 166.353 5.964 165.821 4.592C165.299 3.21067 164.515 2.03 163.469 1.05V0.924H164.799C165.779 1.82933 166.531 2.982 167.053 4.382C167.585 5.77267 167.851 7.27067 167.851 8.876C167.851 10.444 167.599 11.9047 167.095 13.258C166.601 14.6113 165.905 15.7267 165.009 16.604H163.679ZM181.535 9.87C181.535 10.1127 181.521 10.3693 181.493 10.64H175.361C175.408 11.396 175.664 11.9887 176.131 12.418C176.607 12.838 177.181 13.048 177.853 13.048C178.404 13.048 178.861 12.922 179.225 12.67C179.598 12.4087 179.86 12.0633 180.009 11.634H181.381C181.176 12.3713 180.765 12.9733 180.149 13.44C179.533 13.8973 178.768 14.126 177.853 14.126C177.125 14.126 176.472 13.9627 175.893 13.636C175.324 13.3093 174.876 12.8473 174.549 12.25C174.222 11.6433 174.059 10.9433 174.059 10.15C174.059 9.35667 174.218 8.66133 174.535 8.064C174.852 7.46667 175.296 7.00933 175.865 6.692C176.444 6.36533 177.106 6.202 177.853 6.202C178.581 6.202 179.225 6.36067 179.785 6.678C180.345 6.99533 180.774 7.434 181.073 7.994C181.381 8.54467 181.535 9.17 181.535 9.87ZM180.219 9.604C180.219 9.11867 180.112 8.70333 179.897 8.358C179.682 8.00333 179.388 7.73733 179.015 7.56C178.651 7.37333 178.245 7.28 177.797 7.28C177.153 7.28 176.602 7.48533 176.145 7.896C175.697 8.30667 175.44 8.876 175.375 9.604H180.219ZM182.921 10.136C182.921 9.352 183.079 8.666 183.397 8.078C183.714 7.48067 184.148 7.01867 184.699 6.692C185.259 6.36533 185.884 6.202 186.575 6.202C187.172 6.202 187.727 6.342 188.241 6.622C188.754 6.89267 189.146 7.252 189.417 7.7V3.64H190.705V14H189.417V12.558C189.165 13.0153 188.791 13.3933 188.297 13.692C187.802 13.9813 187.223 14.126 186.561 14.126C185.879 14.126 185.259 13.958 184.699 13.622C184.148 13.286 183.714 12.8147 183.397 12.208C183.079 11.6013 182.921 10.9107 182.921 10.136ZM189.417 10.15C189.417 9.57133 189.3 9.06733 189.067 8.638C188.833 8.20867 188.516 7.882 188.115 7.658C187.723 7.42467 187.289 7.308 186.813 7.308C186.337 7.308 185.903 7.42 185.511 7.644C185.119 7.868 184.806 8.19467 184.573 8.624C184.339 9.05333 184.223 9.55733 184.223 10.136C184.223 10.724 184.339 11.2373 184.573 11.676C184.806 12.1053 185.119 12.4367 185.511 12.67C185.903 12.894 186.337 13.006 186.813 13.006C187.289 13.006 187.723 12.894 188.115 12.67C188.516 12.4367 188.833 12.1053 189.067 11.676C189.3 11.2373 189.417 10.7287 189.417 10.15ZM199.842 6.328V14H198.568V12.866C198.325 13.258 197.984 13.566 197.546 13.79C197.116 14.0047 196.64 14.112 196.118 14.112C195.52 14.112 194.984 13.9907 194.508 13.748C194.032 13.496 193.654 13.1227 193.374 12.628C193.103 12.1333 192.968 11.5313 192.968 10.822V6.328H194.228V10.654C194.228 11.41 194.419 11.9933 194.802 12.404C195.184 12.8053 195.707 13.006 196.37 13.006C197.051 13.006 197.588 12.796 197.98 12.376C198.372 11.956 198.568 11.3447 198.568 10.542V6.328H199.842Z" fill="black"/>
</svg>
