<svg width="23" height="23" viewBox="0 0 23 23" fill="none" xmlns="http://www.w3.org/2000/svg">
<g clip-path="url(#clip0_1030_3961)">
<path fill-rule="evenodd" clip-rule="evenodd" d="M11.5003 0.479248C8.77025 0.480665 6.12969 1.4476 4.05082 3.20717C1.97194 4.96673 0.590307 7.40418 0.152963 10.0837C-0.284381 12.7632 0.251079 15.51 1.66361 17.8329C3.07614 20.1559 5.27362 21.9035 7.86312 22.7633C8.43441 22.8694 8.6496 22.5153 8.6496 22.2142C8.6496 21.9132 8.63817 21.0403 8.63436 20.086C5.43515 20.7771 4.75914 18.736 4.75914 18.736C4.23736 17.4105 3.48326 17.0621 3.48326 17.0621C2.43971 16.354 3.56134 16.3672 3.56134 16.3672C4.71725 16.4487 5.32471 17.5469 5.32471 17.5469C6.34922 19.2945 8.01546 18.789 8.67054 18.4936C8.77337 17.7533 9.07235 17.2496 9.40179 16.9637C6.84624 16.6759 4.16119 15.6951 4.16119 11.3136C4.14535 10.1773 4.56942 9.07842 5.34566 8.24432C5.22759 7.95651 4.8334 6.79393 5.45801 5.21479C5.45801 5.21479 6.42349 4.90805 8.62104 6.38684C10.506 5.8743 12.4947 5.8743 14.3796 6.38684C16.5752 4.90805 17.5388 5.21479 17.5388 5.21479C18.1653 6.79014 17.7711 7.95273 17.6531 8.24432C18.4318 9.07856 18.8567 10.1794 18.8394 11.3174C18.8394 15.7083 16.1487 16.6759 13.5893 16.958C14.0006 17.314 14.3682 18.0089 14.3682 19.0768C14.3682 20.6067 14.3548 21.8374 14.3548 22.2142C14.3548 22.5191 14.5624 22.8751 15.1451 22.7633C17.7349 21.9034 19.9326 20.1555 21.3451 17.8321C22.7576 15.5088 23.2928 12.7615 22.855 10.0818C22.4171 7.40206 21.0348 4.96459 18.9553 3.20533C16.8757 1.44607 14.2345 0.479767 11.5041 0.479248H11.5003Z" fill="#F1A9A0FF"/>
<path d="M4.355 16.8974C4.33024 16.9542 4.23884 16.9712 4.16457 16.9314C4.0903 16.8917 4.03508 16.8178 4.06174 16.7591C4.0884 16.7004 4.1779 16.6853 4.25217 16.725C4.32644 16.7648 4.38356 16.8405 4.355 16.8974Z" fill="#F1A9A0FF"/>
<path d="M4.82176 17.4142C4.78232 17.4339 4.7372 17.4394 4.69413 17.4298C4.65105 17.4201 4.6127 17.3958 4.58563 17.3612C4.51136 17.2816 4.49612 17.1718 4.55325 17.1226C4.61037 17.0734 4.71321 17.0961 4.78748 17.1756C4.86175 17.2551 4.87889 17.3649 4.82176 17.4142Z" fill="#F1A9A0FF"/>
<path d="M5.27484 18.0713C5.20438 18.1205 5.0844 18.0713 5.01775 17.9728C4.99932 17.9552 4.98466 17.934 4.97465 17.9106C4.96464 17.8871 4.95947 17.862 4.95947 17.8365C4.95947 17.8111 4.96464 17.7859 4.97465 17.7624C4.98466 17.739 4.99932 17.7178 5.01775 17.7002C5.08821 17.6528 5.20819 17.7002 5.27484 17.7967C5.34148 17.8933 5.34339 18.0221 5.27484 18.0713V18.0713Z" fill="#F1A9A0FF"/>
<path d="M5.88988 18.7075C5.82704 18.7776 5.69946 18.7586 5.59472 18.664C5.48999 18.5693 5.46522 18.4405 5.52807 18.3724C5.59091 18.3042 5.7185 18.3232 5.82704 18.4159C5.93558 18.5087 5.95653 18.6394 5.88988 18.7075V18.7075Z" fill="#F1A9A0FF"/>
<path d="M6.7525 19.0786C6.72394 19.1676 6.59444 19.2074 6.46495 19.1695C6.33546 19.1316 6.24977 19.0256 6.27452 18.9347C6.29928 18.8438 6.43068 18.8022 6.56207 18.8438C6.69347 18.8855 6.77726 18.9858 6.7525 19.0786Z" fill="#F1A9A0FF"/>
<path d="M7.6934 19.143C7.6934 19.2358 7.58677 19.3153 7.44966 19.3172C7.31255 19.3191 7.2002 19.2433 7.2002 19.1506C7.2002 19.0578 7.30683 18.9782 7.44394 18.9764C7.58105 18.9745 7.6934 19.0483 7.6934 19.143Z" fill="#F1A9A0FF"/>
<path d="M8.56921 18.9972C8.58635 19.0899 8.49114 19.1865 8.35403 19.2092C8.21692 19.232 8.09695 19.177 8.07981 19.0862C8.06267 18.9953 8.1617 18.8968 8.295 18.8722C8.4283 18.8476 8.55208 18.9044 8.56921 18.9972Z" fill="#F1A9A0FF"/>
</g>
<defs>
<clipPath id="clip0_1030_3961">
<rect width="23" height="23" fill="white"/>
</clipPath>
</defs>
</svg>
