<svg width="328" height="407" viewBox="0 0 328 407" fill="none" xmlns="http://www.w3.org/2000/svg">
<mask id="mask0_1110_3573" style="mask-type:alpha" maskUnits="userSpaceOnUse" x="21" y="23" width="269" height="241">
<path d="M21 198.341L64.8354 248.351L80.0645 259.052L98.9981 263.786L119.784 262.757L134.807 257.818L149.213 260.081L232.768 173.851L289.569 36.7886L204.573 23L200.457 44.8148L189.138 66.218L179.26 74.8615L162.796 79.8007L154.564 80.8297L141.187 78.1543L114.433 71.3629L71.421 51.4004L21 107.378V198.341Z" fill="#C4C4C4"/>
</mask>
<g mask="url(#mask0_1110_3573)">
<path d="M148.716 24.1201C156.041 20.9207 159.732 21.3713 162.543 21.2759C163.643 21.2386 164.75 21.1891 165.845 21.2937C168.97 21.592 173.885 21.9177 177.998 23.0196C182.939 24.3437 185.2 25.5221 188.903 27.7309C192.605 29.9397 193.664 30.796 196.51 34.0636C199.356 37.3313 199.718 36.7839 203.134 44.0691C206.549 51.3543 210.771 62.5772 213.589 70.4895C216.408 78.4019 215.93 75.912 217.225 83.631C218.521 91.3501 219.549 98.9976 220.067 109.085C220.585 119.172 220.463 124.436 219.815 134.067C219.166 143.699 218.604 148.201 216.825 157.243L216.78 157.475C215.03 166.369 214.083 171.186 210.921 179.28C207.731 187.443 206.21 190.185 200.878 198.061C195.547 205.936 197.092 206.851 184.265 218.659C171.439 230.467 148.552 247.238 136.747 257.101C124.943 266.964 129.286 263.046 125.245 267.975C121.204 272.905 119.321 276.194 116.545 281.748C113.768 287.302 112.562 290.2 111.362 295.747C110.162 301.295 109.263 304.918 110.544 309.485C111.826 314.051 114.121 316.169 117.77 318.578C121.419 320.987 123.422 321.524 128.788 321.53C134.154 321.537 138.911 320.879 144.601 318.61C150.29 316.341 149.776 317.993 157.236 310.186C164.577 302.504 171.903 292.807 181.435 280.191L181.899 279.577C191.658 266.661 198.013 255.767 206.032 245.605C214.051 235.444 214.293 234.006 221.995 228.769C229.696 223.532 237.256 221.764 244.539 219.422C251.823 217.079 254.006 216.948 258.414 217.056C262.823 217.164 263.406 217.391 266.582 219.96C269.759 222.529 272.205 225.689 274.297 229.9C276.389 234.111 276.717 235.559 277.045 241.014C277.372 246.47 277.712 249.209 275.934 257.179C274.157 265.148 270.823 274.919 268.157 280.861C265.492 286.803 265.336 283.111 262.606 286.888C259.876 290.666 256.204 292.616 254.508 299.748C252.811 306.88 256.11 315.136 254.124 322.549C252.138 329.961 250.381 331.709 244.577 336.81C238.773 341.911 230.915 343.456 225.103 348.053C219.29 352.651 218.327 354.111 215.514 359.799C212.702 365.487 211.792 370.754 211.041 376.493C210.29 382.232 210.06 384.962 211.761 388.495C213.463 392.029 216.45 392.901 219.548 394.16C222.646 395.42 224.374 395.382 227.251 394.793C230.129 394.204 233.673 390.86 233.935 391.216C234.198 391.573 232.6 394.866 228.563 396.576C224.526 398.286 219.585 399.896 213.752 399.765C207.918 399.633 204.374 398.97 199.395 395.918C194.415 392.866 192.364 391.171 188.854 384.505C185.344 377.838 181.656 374.775 181.844 362.586C182.032 350.398 184.814 336.543 189.795 323.563C194.776 310.583 200.193 305.593 206.749 297.687C213.305 289.782 215.476 287.286 222.574 284.035C229.672 280.783 236.169 281.379 242.239 281.431C248.308 281.483 249.142 284.783 252.923 284.294C256.704 283.804 257.742 283.939 261.146 278.982C264.549 274.025 267.689 266.85 269.942 259.509C272.195 252.169 272.445 248.299 272.412 242.278C272.379 236.257 271.906 233.482 269.778 229.405C267.649 225.328 266.476 223.296 261.771 221.892C257.065 220.488 253.73 220.381 246.25 222.385C238.771 224.389 232.664 225.544 224.373 231.911C216.083 238.278 212.469 243.752 204.797 254.221C197.125 264.69 196.864 270.203 186.013 284.258C175.161 298.313 162.814 315.546 150.539 324.495C138.264 333.445 133.869 329.548 124.638 329.007C115.407 328.466 111.209 326.769 104.384 321.791C97.5584 316.812 94.034 311.001 90.5108 304.117C86.9876 297.232 93.1739 300.321 86.7678 287.368C80.3617 274.415 66.0857 254.772 58.4802 239.35C50.8747 223.928 51.2194 222.374 48.7401 210.259C46.2608 198.143 45.7905 189.213 46.0836 178.771C46.3766 168.328 47.6313 165.515 50.2054 158.046C52.7794 150.576 55.4163 146.344 58.9537 141.423C62.491 136.502 64.3263 136.063 67.892 133.44C71.4578 130.817 72.7327 129.799 76.7825 128.307C80.8323 126.816 80.8987 130.842 88.1411 125.983C95.3835 121.124 107.341 113.092 112.994 104.014C118.648 94.9357 116.901 88.0978 116.407 80.5935C115.913 73.0891 109.801 74.5291 110.523 66.4918C111.245 58.4545 112.379 48.8814 120.018 40.407C127.656 31.9327 139.881 27.9795 148.716 24.1201Z" fill="#82525B"/>
<path d="M66.0787 216.336C55.2147 207.198 56.2161 196.516 53.7505 191.561L53.2374 190.226C52.6456 188.687 52.3497 187.917 52.1843 187.12C52.019 186.323 51.9849 185.517 51.9168 183.905C51.7128 179.078 51.5857 172.834 52.6675 166.22C54.0133 157.992 55.0799 152.409 58.7926 146.032C62.5054 139.655 66.1593 137.771 71.2313 134.335C76.3032 130.899 81.3058 129.591 84.1523 128.851C86.9989 128.11 87.3136 129.34 85.4639 130.634C83.6143 131.927 78.7417 132.483 74.904 135.319C71.0664 138.156 68.9317 139.445 66.2756 144.817C63.6195 150.188 61.7947 152.992 61.6234 162.179C61.4521 171.366 62.1559 182.362 65.419 190.751C68.6821 199.14 72.2357 199.234 77.939 204.126C83.6422 209.018 88.6598 213.798 93.9352 215.211C99.2106 216.625 102.296 213.658 104.316 211.194C106.336 208.729 103.323 207.42 104.037 202.888C104.75 198.355 94.9686 192.657 107.884 188.531C120.799 184.405 152.222 187.6 168.611 182.257C185.001 176.915 182.128 174.284 189.834 161.82C197.539 149.356 201.016 128.1 207.14 119.936C213.264 111.771 217.934 117.317 220.454 120.998C222.975 124.679 222.227 126.553 220.285 138.343C219.748 141.824 218.793 147.865 217.24 155.298C215.549 163.885 213.518 172.858 211.284 179.948C207.458 192.092 205.906 191.32 200.61 199.062C195.315 206.805 192.437 211.401 184.266 218.659C176.094 225.917 167.03 231.433 159.753 235.352C152.476 239.271 158.218 237.875 147.881 238.255C137.545 238.634 124.431 241.633 108.07 237.25C91.7097 232.866 76.9426 225.474 66.0787 216.336Z" fill="#B8969C"/>
<path opacity="0.25" d="M170.051 76.7164C163.699 78.5213 156.476 78.2321 153.082 78.611C155.612 81.7224 149.844 82.6819 151.651 83.9532C153.457 85.2246 156.832 85.9857 162.115 84.9678C167.397 83.9498 175.325 79.2032 178.065 78.8636C180.804 78.524 180.721 80.4343 175.81 83.2696C170.899 86.105 158.636 89.4035 153.51 93.0401C148.384 96.6768 149.893 97.7251 150.182 101.453C150.472 105.181 154.998 107.252 154.957 111.679C154.916 116.105 152.346 120.355 149.978 123.585C147.609 126.816 144.337 125.939 143.115 127.83C141.892 129.721 144.438 130.904 143.865 133.041C143.293 135.178 142.052 137.136 140.252 138.514C138.451 139.893 136.541 139.81 134.861 139.933C133.182 140.056 133.078 138.31 131.857 139.128C130.635 139.946 130.931 142.315 128.756 144.023C126.58 145.73 125.065 147.113 120.98 147.665C116.896 148.217 111.481 148.126 108.334 146.782C105.187 145.437 106.284 144.014 105.246 140.944C104.208 137.875 104.822 134.246 103.142 131.434C101.462 128.622 99.4278 127.934 96.8462 126.884C94.2645 125.834 89.1415 127.325 90.2339 126.186C91.3263 125.047 94.0818 129.722 102.308 121.19C110.535 112.659 121.498 90.9756 131.366 83.5282C141.235 76.0808 147.594 83.8682 151.651 83.9532C149.844 82.6819 155.612 81.7224 153.082 78.611C150.552 75.4996 142.617 74.6618 139 68.3962C135.382 62.1306 133.248 55.4036 134.995 47.2829C136.741 39.1622 142.356 32.3643 147.732 27.7928C153.108 23.2213 156.299 24.9352 161.875 24.4253C167.451 23.9154 170.404 23.8476 175.613 25.2433C180.821 26.6389 184.012 28.3528 187.919 31.4035C191.825 34.4543 193.916 35.7304 195.144 40.4969C196.372 45.2633 196.118 49.4179 194.058 55.2359C191.998 61.0538 189.646 65.2905 184.845 69.5867C180.052 73.8751 176.417 74.9079 170.085 76.7068L170.051 76.7164Z" fill="black" fill-opacity="0.25"/>
<path d="M170.324 90.3883C175.107 80.9269 180.96 80.3151 185.046 79.4674C190.151 68.3896 194.936 58.0822 198.445 50.75C199.453 46.3694 202.017 43.451 202.017 43.451C202.017 43.451 206.822 57.8657 211.233 66.085C211.535 66.6489 211.797 67.2327 212 67.8398L214.99 76.8116L217.256 85.6665C217.256 85.6665 218.491 108.731 216.663 115.303C214.982 114.929 208.124 114.053 202.033 114.257C197.44 122.721 193.189 130.339 191.583 132.586C186.856 152.362 183.927 148.07 174.987 157.126C166.047 166.182 163.258 171.518 146.884 177.867C133.093 183.215 104.39 187.359 95.6804 188.534C93.9997 188.76 92.4395 189.6 90.7691 189.893C85.2602 190.858 78.8994 183.017 74.5183 178.159C69.4973 172.591 68.4745 167.593 68.0148 161.028C67.5551 154.464 68.736 150.056 72.2197 145.336C75.2766 141.193 83.1644 141.347 85.0511 141.447C85.3235 141.461 85.2014 141.532 85.4676 141.472C87.9939 140.903 102.721 150.084 103.739 152.465C103.967 152.998 104.142 153.562 104.249 154.16C104.481 155.454 105.249 156.708 106.476 157.18C110.288 158.646 116.083 161.302 121.677 161.093C128.529 160.836 151.226 151.405 154.393 145.323C154.837 144.47 155.307 143.538 155.814 142.52C156.287 141.536 157.012 140.024 157.874 138.206C163.477 124.875 164.378 102.153 170.324 90.3883Z" fill="#CB6C66" fill-opacity="0.25"/>
</g>
<g opacity="0.25">
<path d="M148.916 24.5783C152.54 22.9952 155.25 22.3217 157.389 22.0294C158.965 21.8141 160.222 21.8042 161.352 21.7953C161.769 21.7921 162.168 21.7889 162.56 21.7756C162.637 21.773 162.715 21.7703 162.792 21.7676C163.821 21.732 164.815 21.6976 165.797 21.7914C166.226 21.8324 166.687 21.8737 167.172 21.9173C170.255 22.1941 174.36 22.5625 177.868 23.5026C182.752 24.8114 184.97 25.9674 188.646 28.1603C190.494 29.2629 191.656 30.0127 192.708 30.885C193.759 31.7568 194.713 32.7626 196.133 34.392C196.718 35.0645 197.202 35.5791 197.622 36.0266C197.718 36.1282 197.81 36.2265 197.899 36.3223C198.383 36.8402 198.786 37.2891 199.205 37.8568C200.047 38.9961 200.974 40.6413 202.68 44.2814C206.085 51.543 210.3 62.7462 213.118 70.6573C213.753 72.4401 214.218 73.6877 214.572 74.6399C215.012 75.8201 215.282 76.5463 215.499 77.2749C215.853 78.4714 216.05 79.6444 216.592 82.88C216.636 83.1438 216.683 83.4214 216.732 83.7138C218.025 91.4193 219.051 99.0471 219.567 109.111C220.084 119.175 219.962 124.419 219.315 134.034C218.668 143.647 218.109 148.127 216.334 157.147L216.289 157.378C214.54 166.269 213.599 171.049 210.455 179.098C207.281 187.221 205.778 189.93 200.464 197.78C199.122 199.763 198.212 201.309 197.405 202.689L197.315 202.843C196.546 204.16 195.866 205.323 194.973 206.599C193.12 209.244 190.331 212.395 183.926 218.291C177.53 224.18 168.616 231.313 159.814 238.216C157.635 239.925 155.463 241.619 153.338 243.277C146.888 248.31 140.872 253.003 136.426 256.717C134.493 258.333 132.99 259.58 131.812 260.559C129.405 262.558 128.349 263.434 127.736 264.03C127.256 264.496 127.031 264.805 126.681 265.292L126.657 265.325C126.316 265.798 125.836 266.465 124.858 267.658C120.786 272.626 118.884 275.95 116.097 281.524C113.309 287.101 112.085 290.04 110.873 295.642C110.814 295.914 110.755 296.183 110.698 296.448C109.592 301.533 108.806 305.145 110.062 309.62C110.72 311.963 111.645 313.701 112.888 315.164C114.124 316.62 115.657 317.783 117.494 318.995C119.339 320.214 120.804 320.982 122.505 321.438C124.198 321.892 126.094 322.027 128.787 322.03C134.205 322.037 139.027 321.371 144.785 319.074C146.002 318.589 146.928 318.287 147.721 318.028C147.845 317.987 147.965 317.948 148.082 317.909C148.955 317.622 149.696 317.359 150.498 316.911C152.089 316.022 153.875 314.427 157.597 310.532C164.958 302.829 172.298 293.113 181.816 280.516L181.833 280.493L182.297 279.879C187.032 273.613 190.966 267.823 194.67 262.371L195.031 261.839C198.843 256.229 202.427 250.98 206.424 245.915C207.965 243.962 209.215 242.336 210.284 240.947C212.01 238.703 213.262 237.074 214.506 235.672C216.494 233.43 218.444 231.788 222.275 229.182C228.666 224.837 234.945 222.909 241.122 221.011C242.316 220.645 243.506 220.279 244.692 219.898C248.326 218.729 250.663 218.12 252.631 217.814C254.593 217.509 256.204 217.502 258.402 217.556C260.618 217.61 261.785 217.696 262.791 218.056C263.793 218.414 264.67 219.057 266.268 220.349C269.38 222.866 271.783 225.966 273.849 230.123C274.891 232.219 275.476 233.594 275.847 235.109C276.219 236.631 276.381 238.316 276.545 241.044C276.568 241.424 276.591 241.789 276.613 242.143C276.75 244.35 276.861 246.125 276.779 248.134C276.684 250.458 276.33 253.104 275.446 257.07C273.676 265.006 270.353 274.745 267.701 280.656C266.374 283.613 265.736 284.01 265.216 284.223C265.147 284.251 265.067 284.28 264.977 284.312C264.706 284.408 264.349 284.534 263.983 284.765C263.471 285.089 262.905 285.619 262.2 286.595C261.484 287.586 260.676 288.468 259.845 289.375C257.641 291.78 255.274 294.363 254.021 299.633C253.18 303.169 253.537 306.961 253.889 310.692C253.901 310.825 253.914 310.958 253.926 311.09C254.292 314.985 254.607 318.813 253.641 322.419C252.654 326.101 251.737 328.326 250.373 330.258C249.001 332.202 247.157 333.876 244.246 336.434C241.405 338.932 238.051 340.567 234.631 342.168C234.423 342.264 234.216 342.361 234.008 342.458C230.809 343.951 227.573 345.462 224.792 347.661C221.882 349.964 220.149 351.507 218.792 353.205C217.435 354.903 216.47 356.736 215.065 359.577C212.215 365.342 211.297 370.677 210.545 376.428C209.795 382.159 209.537 385.029 211.31 388.712C212.934 392.085 215.7 393.176 218.455 394.263C218.757 394.382 219.059 394.502 219.359 394.624C220.941 395.267 222.201 395.59 223.45 395.669C224.695 395.747 225.898 395.58 227.351 395.283C228.899 394.966 230.58 393.926 231.854 393.064C232.173 392.848 232.458 392.649 232.716 392.47C232.84 392.383 232.959 392.3 233.071 392.223C232.918 392.479 232.719 392.768 232.471 393.075C231.645 394.1 230.301 395.297 228.367 396.116C224.361 397.812 219.496 399.394 213.763 399.265C210.86 399.199 208.559 399.002 206.375 398.451C204.196 397.902 202.111 396.997 199.655 395.491C197.17 393.968 195.46 392.809 193.933 391.22C192.407 389.631 191.042 387.588 189.296 384.272C188.588 382.927 187.871 381.725 187.187 380.578C187.016 380.291 186.848 380.008 186.681 379.727C185.847 378.316 185.077 376.95 184.421 375.419C183.117 372.372 182.25 368.631 182.344 362.594C182.531 350.47 185.299 336.673 190.262 323.742C194.427 312.887 198.881 307.685 204.112 301.574C205.091 300.431 206.097 299.256 207.133 298.006C210.418 294.045 212.575 291.477 214.792 289.488C216.994 287.512 219.264 286.101 222.782 284.489C228.905 281.685 234.557 281.792 239.984 281.896C240.738 281.91 241.488 281.924 242.234 281.931C245.156 281.956 246.799 282.755 248.203 283.506C248.293 283.555 248.384 283.604 248.474 283.652C249.79 284.363 251.047 285.041 252.987 284.789C253.195 284.762 253.397 284.737 253.593 284.713C255.128 284.521 256.299 284.376 257.419 283.749C258.687 283.041 259.853 281.747 261.557 279.265C265 274.252 268.157 267.025 270.419 259.656C272.691 252.256 272.944 248.334 272.911 242.275C272.895 239.257 272.768 237.019 272.37 235.015C271.971 233.002 271.301 231.244 270.22 229.174C269.162 227.147 268.306 225.553 267.1 224.299C265.877 223.027 264.323 222.132 261.913 221.412C259.528 220.701 257.464 220.311 255.04 220.361C252.625 220.41 249.877 220.896 246.121 221.902C245.408 222.093 244.707 222.277 244.014 222.458C237.45 224.175 231.65 225.692 224.068 231.515C216.495 237.331 212.781 242.425 206.452 251.106C205.796 252.006 205.112 252.944 204.393 253.925C200.986 258.575 199.028 262.259 196.982 266.109C196.709 266.622 196.435 267.137 196.156 267.659C193.784 272.087 191.02 276.953 185.616 283.953C184.207 285.778 182.773 287.656 181.319 289.56C177.167 294.998 172.846 300.658 168.425 305.971C162.454 313.147 156.33 319.654 150.244 324.091C144.162 328.526 140.092 329.736 136.436 329.81C134.592 329.848 132.832 329.596 130.931 329.295C130.752 329.266 130.571 329.238 130.39 329.209C128.649 328.93 126.783 328.632 124.666 328.508C120.076 328.239 116.772 327.684 113.779 326.593C110.786 325.502 108.074 323.864 104.678 321.387C97.9486 316.479 94.4677 310.752 90.9554 303.889C90.0931 302.204 89.8536 301.184 89.8399 300.408C89.833 300.018 89.8828 299.671 89.9568 299.307C89.9829 299.179 90.015 299.036 90.0491 298.884C90.1046 298.638 90.1651 298.369 90.2121 298.106C90.5454 296.243 90.4364 293.659 87.2155 287.146C84.1485 280.945 79.2908 273.226 74.24 265.2C73.9926 264.807 73.7447 264.413 73.4965 264.018C68.1731 255.556 62.7174 246.812 58.9281 239.129C55.1275 231.422 53.3274 227.208 52.1654 223.418C51.292 220.569 50.778 217.96 50.0509 214.269C49.808 213.036 49.5413 211.682 49.2294 210.158C46.7591 198.086 46.2907 189.196 46.5829 178.785C46.7289 173.582 47.1139 170.304 47.7761 167.405C48.3386 164.942 49.102 162.746 50.1073 159.854C50.2894 159.33 50.4794 158.784 50.6776 158.209C53.2313 150.798 55.8409 146.61 59.3592 141.715C62.009 138.029 63.6448 136.936 65.8757 135.446C66.5721 134.981 67.3265 134.477 68.1878 133.843C68.3667 133.711 68.5396 133.584 68.7074 133.46C71.8783 131.124 73.1752 130.169 76.9548 128.777C78.3388 128.267 79.1329 128.454 80.0947 128.68C80.429 128.758 80.7837 128.842 81.1904 128.902C82.788 129.14 84.7414 128.866 88.4192 126.398C92.0389 123.97 96.8573 120.735 101.479 116.968C106.096 113.205 110.549 108.886 113.418 104.278C118.333 96.3859 117.755 90.1052 117.176 83.81C117.076 82.73 116.977 81.6497 116.905 80.5606C116.777 78.6095 116.28 77.2143 115.605 76.0961C115.016 75.12 114.295 74.366 113.629 73.6685C113.542 73.5777 113.456 73.4879 113.371 73.3986C112.627 72.6134 111.969 71.8591 111.527 70.8329C111.088 69.8125 110.846 68.4821 111.021 66.5366C111.742 58.5064 112.869 49.0838 120.389 40.7418C124.147 36.5718 129.049 33.4985 134.139 30.9811C137.513 29.3123 140.936 27.9027 144.155 26.5766C145.807 25.8965 147.405 25.2383 148.916 24.5783Z" fill="#DD0000" fill-opacity="0.25" stroke="#DD0000"/>
<path d="M219.791 138.261C220.027 136.828 220.245 135.545 220.441 134.39C221.056 130.766 221.458 128.398 221.543 126.606C221.599 125.44 221.518 124.551 221.283 123.742C221.049 122.933 220.653 122.175 220.041 121.28C219.417 120.369 218.671 119.359 217.813 118.48C216.953 117.598 216.003 116.871 214.975 116.494C213.964 116.122 212.859 116.082 211.645 116.599C210.416 117.124 209.04 118.235 207.54 120.236C206.05 122.221 204.704 125.029 203.401 128.354C202.13 131.598 200.912 135.297 199.644 139.149L199.554 139.422C196.962 147.299 194.149 155.79 190.258 162.083C188.448 165.012 187.225 167.393 186.192 169.406C186.133 169.521 186.074 169.636 186.016 169.749C184.949 171.825 184.052 173.534 182.87 175.021C180.479 178.027 176.976 180.057 168.766 182.733C160.49 185.43 148.458 185.966 136.961 186.35C136.211 186.375 135.463 186.399 134.719 186.424C129.739 186.586 124.906 186.744 120.552 187.06C115.539 187.423 111.204 187.995 108.035 189.007C104.836 190.029 103.146 191.12 102.33 192.182C101.547 193.201 101.522 194.261 101.864 195.415C102.129 196.311 102.593 197.202 103.079 198.133C103.242 198.447 103.408 198.765 103.57 199.09C104.182 200.321 104.736 201.658 104.53 202.966C104.213 204.977 104.67 206.296 105.068 207.448C105.092 207.517 105.116 207.586 105.139 207.654C105.343 208.249 105.539 208.864 105.524 209.505C105.508 210.174 105.266 210.823 104.702 211.511C103.68 212.758 102.351 214.18 100.576 215.101C98.7834 216.03 96.565 216.434 93.8053 215.694C91.0754 214.963 88.4412 213.369 85.7958 211.372C83.777 209.848 81.724 208.066 79.6025 206.225C78.9462 205.656 78.2834 205.08 77.613 204.505C76.2064 203.299 74.9313 202.387 73.7489 201.562C73.6077 201.463 73.4676 201.366 73.3285 201.269C72.3083 200.56 71.3451 199.89 70.4423 199.133C68.3616 197.39 66.6111 195.196 64.9525 190.932C61.6528 182.449 60.9514 171.372 61.123 162.169C61.2093 157.543 61.7126 154.494 62.5412 151.914C63.2242 149.787 64.1274 147.988 65.1661 145.918C65.3808 145.491 65.6013 145.051 65.8269 144.595C67.173 141.872 68.4001 140.159 69.7923 138.764C70.9661 137.588 72.2525 136.645 73.7805 135.524C74.0482 135.328 74.3232 135.126 74.6064 134.917C76.5899 133.451 78.8284 132.583 80.7682 131.924C81.176 131.786 81.5647 131.658 81.9351 131.537C82.4605 131.365 82.9493 131.205 83.4042 131.042C84.177 130.765 84.7734 130.506 85.1769 130.224C85.61 129.921 85.8817 129.645 86.0202 129.432C86.0966 129.315 86.1157 129.247 86.1199 129.216C86.0878 129.195 85.9969 129.151 85.7788 129.134C85.455 129.108 84.9619 129.157 84.2777 129.335C81.4378 130.073 76.5073 131.364 71.5112 134.749C70.8939 135.167 70.2993 135.562 69.7245 135.943C65.5557 138.707 62.4275 140.782 59.2243 146.284C55.5621 152.574 54.5059 158.075 53.1605 166.301C52.0873 172.862 52.2122 179.064 52.4159 183.884C52.4846 185.511 52.5182 186.271 52.6734 187.019C52.8286 187.766 53.1062 188.493 53.7036 190.047L54.2083 191.36C54.8493 192.657 55.2579 194.304 55.6761 196.126C55.7284 196.353 55.7809 196.584 55.8341 196.819C56.2131 198.485 56.6272 200.306 57.241 202.228C58.6356 206.593 61.0569 211.459 66.4 215.953C77.1989 225.036 91.897 232.399 108.199 236.767C120.608 240.092 131.095 239.141 140.005 238.334C142.773 238.083 145.389 237.846 147.862 237.755C150.458 237.66 152.046 237.676 153.081 237.692L153.236 237.695C154.191 237.71 154.557 237.716 154.845 237.645C155.108 237.58 155.301 237.453 155.903 237.056L156.006 236.988C156.662 236.556 157.68 235.9 159.515 234.912C166.775 231.002 175.802 225.508 183.933 218.286C191.461 211.599 194.458 207.201 199.074 200.427C199.437 199.894 199.811 199.345 200.197 198.78C201.53 196.831 202.628 195.417 203.581 194.208C203.668 194.097 203.754 193.988 203.839 193.881C204.681 192.813 205.4 191.901 206.081 190.878C207.571 188.643 208.898 185.853 210.803 179.809L219.791 138.261ZM219.791 138.261C219.791 138.262 219.791 138.263 219.791 138.264C218.983 143.167 217.952 149.085 216.749 155.199C216.616 155.835 216.479 156.482 216.337 157.138L219.791 138.261ZM86.1204 129.195C86.1205 129.195 86.1207 129.196 86.1208 129.198C86.1204 129.196 86.1203 129.195 86.1204 129.195Z" fill="#DD0000" fill-opacity="0.25" stroke="#DD0000"/>
<path opacity="0.25" d="M147.943 83.2555C149.184 83.8437 150.387 84.3791 151.486 84.4468C153.471 85.7731 156.968 86.4685 162.209 85.4587C164.919 84.9365 168.277 83.4676 171.25 82.1165C171.568 81.9717 171.883 81.8282 172.192 81.6871C173.336 81.1648 174.406 80.6761 175.353 80.2785C176.57 79.7672 177.519 79.435 178.126 79.3598C178.783 79.2782 179.152 79.3521 179.306 79.4418C179.365 79.4766 179.369 79.4989 179.37 79.5016C179.373 79.5136 179.385 79.572 179.337 79.7026C179.235 79.9785 178.926 80.4051 178.29 80.9607C177.666 81.5055 176.769 82.1384 175.56 82.8366C173.477 84.0394 170.028 85.3338 166.321 86.7254C165.74 86.9434 165.153 87.1639 164.563 87.3867C160.26 89.0138 155.846 90.7693 153.22 92.6324C150.647 94.4578 149.591 95.728 149.324 97.1179C149.193 97.7981 149.261 98.4639 149.364 99.1514C149.39 99.3241 149.419 99.4985 149.447 99.6767C149.536 100.223 149.63 100.807 149.683 101.492C149.829 103.374 150.966 104.863 152.027 106.254C152.117 106.372 152.206 106.489 152.294 106.605C153.457 108.142 154.476 109.646 154.457 111.674C154.417 115.929 151.937 120.067 149.574 123.29C148.481 124.781 147.188 125.327 145.958 125.735C145.814 125.783 145.668 125.83 145.52 125.877C145.053 126.027 144.579 126.179 144.162 126.368C143.596 126.625 143.07 126.977 142.694 127.559C142.324 128.131 142.226 128.68 142.301 129.211C142.372 129.715 142.596 130.175 142.801 130.573C142.824 130.617 142.847 130.661 142.869 130.704C143.275 131.487 143.597 132.109 143.382 132.912C142.836 134.95 141.654 136.811 139.947 138.117C138.51 139.218 137.02 139.304 135.509 139.391C135.281 139.404 135.053 139.418 134.825 139.434C134.227 139.478 133.923 139.228 133.548 138.919C133.533 138.907 133.519 138.895 133.504 138.883C133.32 138.733 133.054 138.514 132.714 138.438C132.333 138.352 131.958 138.458 131.578 138.712C131.169 138.987 130.909 139.376 130.713 139.778C130.569 140.072 130.443 140.409 130.318 140.741C130.278 140.849 130.238 140.957 130.197 141.062C129.857 141.943 129.427 142.86 128.446 143.629C128.304 143.741 128.165 143.851 128.03 143.958C127.111 144.684 126.316 145.312 125.345 145.838C124.245 146.433 122.904 146.901 120.913 147.17C118.9 147.441 116.557 147.555 114.332 147.435C112.099 147.315 110.025 146.961 108.53 146.322C107.779 146.001 107.323 145.693 107.03 145.388C106.745 145.091 106.589 144.771 106.481 144.378C106.394 144.06 106.343 143.719 106.281 143.303C106.262 143.171 106.241 143.032 106.218 142.884C106.123 142.285 105.992 141.589 105.719 140.784C105.304 139.557 105.166 138.241 105.02 136.862C104.992 136.589 104.962 136.314 104.931 136.036C104.744 134.389 104.471 132.683 103.571 131.177C101.901 128.382 99.8626 127.561 97.4945 126.607C97.3424 126.546 97.1889 126.484 97.034 126.421C96.8732 126.355 96.7052 126.299 96.5318 126.251C98.1866 125.514 100.199 124.098 102.668 121.537C106.142 117.934 110.093 112.018 114.208 105.855C115.012 104.652 115.822 103.439 116.636 102.232C121.65 94.7967 126.812 87.5911 131.667 83.9273C134.078 82.1076 136.25 81.2364 138.204 80.9349C140.159 80.6333 141.927 80.8968 143.54 81.3939C144.963 81.8323 146.248 82.4466 147.444 83.0179C147.612 83.0982 147.778 83.1776 147.943 83.2555ZM156.25 77.9094C155.123 77.9583 154.114 78.0066 153.29 78.0867C152.597 77.3252 151.628 76.7108 150.557 76.1418C149.892 75.7889 149.146 75.4333 148.378 75.067C147.814 74.798 147.238 74.5233 146.672 74.2396C143.94 72.8681 141.165 71.1469 139.432 68.1462C135.853 61.9471 133.771 55.3482 135.483 47.388C137.197 39.4184 142.721 32.7094 148.055 28.1737C150.668 25.9518 152.715 25.2803 154.776 25.0837C155.772 24.9886 156.777 25.004 157.882 25.0209C157.941 25.0218 158.001 25.0227 158.061 25.0236C159.229 25.0412 160.497 25.0533 161.92 24.9232C167.468 24.4159 170.354 24.3521 175.483 25.7263C180.622 27.1032 183.753 28.7849 187.61 31.7976C187.937 32.0524 188.248 32.2937 188.547 32.5244C190.058 33.6931 191.223 34.594 192.163 35.641C193.266 36.8685 194.062 38.3038 194.66 40.6216C195.858 45.2745 195.619 49.3265 193.586 55.069C191.546 60.8314 189.233 64.9884 184.511 69.214C179.81 73.42 176.274 74.4285 169.948 76.2258L169.914 76.2355L170.051 76.7164L169.914 76.2355C166.788 77.1237 163.435 77.4998 160.423 77.6996C159.104 77.7872 157.855 77.8406 156.72 77.8892C156.561 77.896 156.404 77.9027 156.25 77.9094Z" fill="#DD0000" fill-opacity="0.25" stroke="#DD0000"/>
<path d="M194.145 115.057C196.792 95.5019 198.359 70.8839 198.202 60.6452C197.739 61.7603 197.101 63.2396 196.302 64.9542C194.506 68.81 191.893 73.8653 188.631 78.6455C186.778 81.3611 184.536 84.1327 182.186 86.8775C180.007 91.6195 177.807 96.4149 175.657 101.101C167.753 118.328 160.529 134.073 157.502 140.236L194.145 115.057ZM194.145 115.057C193.657 115.261 193.213 115.497 192.827 115.77C191.493 116.714 190.503 118.661 189.809 120.823C189.105 123.014 188.67 125.541 188.516 127.776C188.439 128.894 188.432 129.947 188.5 130.855C188.567 131.755 188.709 132.547 188.951 133.123C189.18 133.667 189.602 134.235 190.312 134.173C190.447 134.162 190.577 134.127 190.703 134.074C188.522 142.764 186.714 146.238 184.504 148.529C183.475 149.596 182.352 150.416 181.008 151.397C180.807 151.544 180.602 151.694 180.39 151.849C178.774 153.037 176.892 154.485 174.631 156.775C173.048 158.378 171.666 159.855 170.374 161.237C167.981 163.794 165.894 166.025 163.4 168.13C159.59 171.346 154.851 174.242 146.703 177.401C139.855 180.056 129.273 182.422 119.285 184.274C109.308 186.123 99.9637 187.451 95.6131 188.038C94.7182 188.159 93.8649 188.441 93.0595 188.715L92.9336 188.758C92.1606 189.021 91.4311 189.269 90.6823 189.4C89.4384 189.618 88.1148 189.345 86.7338 188.697C85.352 188.049 83.9427 187.04 82.5475 185.832C80.2456 183.839 78.0391 181.359 76.0994 179.179C75.6832 178.711 75.2792 178.257 74.8892 177.824C69.9741 172.373 68.9691 167.504 68.5131 160.993C68.0606 154.532 69.2171 150.246 72.6215 145.633C74.0323 143.721 76.6052 142.753 79.1624 142.292C81.698 141.835 84.0981 141.897 85.0242 141.946C85.0499 141.947 85.0643 141.949 85.0706 141.95L85.0768 141.952C85.0824 141.954 85.0934 141.958 85.1062 141.962C85.179 141.986 85.2585 141.999 85.354 141.994C85.4282 141.991 85.5044 141.976 85.577 141.96C85.6488 141.943 85.7847 141.937 86.0042 141.97C86.2172 142.001 86.4789 142.065 86.7871 142.16C87.4034 142.352 88.1673 142.663 89.033 143.068C90.7625 143.875 92.8549 145.034 94.9075 146.289C96.9595 147.543 98.9602 148.887 100.507 150.061C101.281 150.649 101.934 151.188 102.421 151.649C102.927 152.127 103.196 152.469 103.279 152.662C103.493 153.162 103.656 153.69 103.756 154.248C104.008 155.65 104.853 157.092 106.296 157.647C106.769 157.829 107.276 158.03 107.812 158.244C111.54 159.728 116.692 161.78 121.695 161.592C123.482 161.525 126.241 160.868 129.387 159.851C132.548 158.83 136.145 157.43 139.623 155.847C143.101 154.266 146.473 152.497 149.181 150.736C150.535 149.855 151.73 148.971 152.692 148.108C153.65 147.25 154.4 146.39 154.836 145.554C155.085 145.076 155.341 144.574 155.607 144.047C155.621 144.041 155.63 144.035 155.635 144.029C155.643 144.017 155.652 144.001 155.655 143.996L155.66 143.987L155.665 143.977L155.675 143.957L155.717 143.872L155.765 143.774C155.968 143.359 156.496 142.279 157.442 140.359C157.462 140.318 157.482 140.277 157.502 140.236L194.145 115.057ZM190.874 133.384C187.585 136.086 188.642 119.343 193.116 116.178M185.924 78.7559C190.245 69.3811 194.316 60.609 197.55 53.7904C197.512 55.1892 197.663 56.6782 198.092 58.2253C198.063 58.3025 198.023 58.4084 197.971 58.5412C197.852 58.8474 197.675 59.2962 197.442 59.865C196.976 61.0026 196.287 62.6192 195.396 64.5318C193.623 68.3371 191.055 73.3042 187.861 77.9998C187.334 78.3349 186.69 78.562 185.924 78.7559ZM185.395 79.9049C185.866 79.804 186.324 79.6949 186.762 79.5615C185.834 80.8375 184.83 82.1258 183.777 83.4185C184.319 82.2407 184.859 81.0686 185.395 79.9049ZM184.18 80.1517C183.24 82.1927 182.29 84.2577 181.336 86.333C179.875 88.0376 178.369 89.7361 176.882 91.4125L176.844 91.4562C175.356 93.1338 173.887 94.7896 172.509 96.4009C170.045 99.2799 167.847 102.04 166.319 104.559C167.506 99.2115 168.883 94.3469 170.77 90.6139C173.123 85.9578 175.718 83.5197 178.19 82.1339C180.301 80.9509 182.344 80.5182 184.18 80.1517ZM198.919 50.9156C199.98 48.6994 200.923 46.7583 201.721 45.1529C202.388 49.9288 204.281 59.9567 206.499 71.0009C205.018 68.9134 203.597 66.8009 202.387 64.8156C200.808 62.2225 199.611 59.8809 199.099 58.1085C198.339 55.4823 198.441 53.0293 198.919 50.9156ZM201.533 65.3359C203.11 67.9237 205.034 70.7142 206.978 73.3787C208.478 80.7949 210.095 88.539 211.568 95.3826C208.745 100.712 205.149 107.461 201.729 113.768C199.33 113.862 197.026 114.128 195.204 114.679C197.771 95.499 199.311 71.6153 199.208 61.1051C199.828 62.4152 200.627 63.8476 201.533 65.3359ZM212.295 94.0082C211.032 88.1152 209.675 81.6222 208.384 75.2823C210.356 77.9178 212.269 80.3457 213.778 82.2202C214.703 83.3695 215.476 84.3113 216.019 84.966C216.29 85.2934 216.503 85.549 216.649 85.7229C216.652 85.7259 216.654 85.7288 216.656 85.7316L216.433 86.1568C216.187 86.6261 215.827 87.3116 215.372 88.1765C214.593 89.6568 213.536 91.6624 212.295 94.0082ZM202.884 113.735C206.001 107.981 209.242 101.904 211.895 96.9003C213.638 104.957 215.147 111.596 215.967 114.663C213.583 114.264 208.062 113.646 202.884 113.735ZM216.591 113.079C215.69 109.484 214.249 103.081 212.622 95.5285C214.105 92.7285 215.364 90.3399 216.257 88.6421C216.475 88.2282 216.671 87.8553 216.843 87.5275C216.866 88.0557 216.893 88.6836 216.92 89.3922C217.007 91.6543 217.104 94.7381 217.144 98.0262C217.185 101.315 217.168 104.804 217.027 107.877C216.937 109.851 216.796 111.635 216.591 113.079ZM201.172 114.794C197.804 120.99 194.674 126.625 192.69 129.921C193.548 125.828 194.34 120.989 195.055 115.779C196.664 115.218 198.817 114.917 201.172 114.794ZM162.953 125.974C162.317 127.412 161.647 128.896 160.976 130.365C162.238 125.578 163.235 120.297 164.222 115.071C164.301 114.648 164.381 114.225 164.461 113.803C164.628 112.923 164.795 112.045 164.963 111.173C165.144 111.389 165.349 111.572 165.548 111.739C165.626 111.804 165.702 111.866 165.776 111.926C166.23 112.299 166.611 112.61 166.854 113.128C167.127 113.708 167.248 114.625 166.804 116.285C166.306 118.143 164.779 121.846 162.953 125.974ZM168.026 115.324C168.188 114.195 168.069 113.362 167.76 112.703C167.412 111.963 166.839 111.499 166.387 111.133C166.318 111.077 166.252 111.024 166.189 110.972C165.706 110.567 165.405 110.233 165.369 109.627C165.329 108.958 165.608 107.876 166.646 105.988C168.115 103.318 170.495 100.292 173.268 97.0511C174.642 95.4465 176.105 93.7962 177.595 92.1159L177.63 92.076C178.367 91.2452 179.11 90.4071 179.851 89.5645C178.14 93.2905 176.426 97.0265 174.743 100.695C172.414 105.77 170.145 110.715 168.026 115.324ZM155.671 143.965L155.671 143.965C155.669 143.969 155.668 143.97 155.671 143.965ZM191.119 132.373C190.9 132.67 190.711 132.872 190.552 133.002C190.377 133.144 190.27 133.173 190.226 133.177L190.226 133.177C190.211 133.178 190.065 133.192 189.873 132.736C189.693 132.308 189.561 131.641 189.497 130.781C189.434 129.931 189.439 128.927 189.514 127.844C189.663 125.677 190.086 123.232 190.761 121.129C191.445 118.997 192.355 117.329 193.405 116.586C193.578 116.463 193.771 116.346 193.983 116.235C193.127 122.387 192.165 127.974 191.119 132.373ZM216.22 83.6394C215.755 83.0729 215.192 82.3822 214.557 81.5932C212.729 79.3228 210.309 76.2409 207.914 72.9658C205.963 63.3096 204.219 54.2526 203.254 48.4912C203.625 49.5147 204.045 50.6537 204.503 51.8627C206.256 56.4968 208.57 62.1812 210.792 66.3214C211.083 66.8649 211.333 67.4224 211.525 67.9979L214.51 76.9529L216.22 83.6394Z" fill="#DD0000" fill-opacity="0.25" stroke="#DD0000"/>
<path d="M212.24 303.226C209.933 309.706 207.327 317.792 206.95 325.765C206.647 332.176 208.014 337.63 209.465 342.655C209.645 343.277 209.825 343.891 210.004 344.499C211.276 348.828 212.457 352.844 212.546 357.001C212.647 361.74 211.757 364.392 210.734 366.617C210.52 367.082 210.297 367.535 210.073 367.989C209.223 369.71 208.365 371.449 207.988 373.944C207.958 374.145 207.928 374.344 207.898 374.539C207.033 380.256 206.568 383.323 207.945 387.749C208.678 390.107 210.241 391.741 211.696 393.062C211.984 393.324 212.262 393.569 212.529 393.804C212.952 394.175 213.347 394.522 213.709 394.874C214.293 395.441 214.719 395.954 214.945 396.471C215.215 397.087 215.434 397.589 215.57 398.007C215.71 398.44 215.729 398.69 215.693 398.834C215.672 398.918 215.621 399.023 215.347 399.118C215.045 399.222 214.548 399.282 213.762 399.265C210.597 399.195 204.525 398.476 199.656 395.491C197.166 393.965 195.465 392.845 193.944 391.275C192.423 389.706 191.059 387.665 189.297 384.274C188.62 382.969 187.93 381.776 187.267 380.627C187.058 380.265 186.851 379.907 186.648 379.551C185.798 378.063 185.008 376.606 184.334 374.988C182.992 371.766 182.095 367.871 182.189 361.837C182.376 349.717 185.182 336.576 190.26 323.747C194.905 312.011 201.161 304.968 206.221 299.27C206.674 298.761 207.116 298.263 207.547 297.773C208.138 297.101 208.755 296.917 209.327 296.995C209.929 297.078 210.565 297.465 211.122 298.102C212.244 299.383 212.866 301.467 212.24 303.226Z" fill="#DD0000" fill-opacity="0.25" stroke="#DD0000"/>
<path d="M80.001 111.748C82.6947 114.218 85.3738 118.461 86.9451 121.378C87.5236 122.451 87.3175 123.68 86.5884 124.853C85.8586 126.027 84.6467 127.063 83.4055 127.655C81.4314 128.596 79.2132 129.629 77.1119 130.385C74.9924 131.148 73.0699 131.599 71.6631 131.445C70.6134 131.33 69.8413 131.004 69.2463 130.544C68.6476 130.082 68.1994 129.463 67.8338 128.72C67.4663 127.974 67.1909 127.121 66.9272 126.204C66.8521 125.943 66.7776 125.675 66.7021 125.404C66.5167 124.737 66.3252 124.049 66.1038 123.383C64.9137 119.807 65.1947 116.411 65.9463 113.607C66.3065 112.262 66.8506 111.529 67.4694 111.011C67.7876 110.744 68.1365 110.525 68.5197 110.306C68.6458 110.233 68.7797 110.159 68.9177 110.082C69.1838 109.934 69.4655 109.778 69.7372 109.611C70.567 109.103 70.9741 108.878 71.4215 108.796C71.8697 108.714 72.404 108.769 73.497 108.99C73.8784 109.067 74.2325 109.126 74.5731 109.183C75.2642 109.299 75.8994 109.405 76.5928 109.632C77.5876 109.956 78.6692 110.527 80.001 111.748Z" fill="#DD0000" fill-opacity="0.25" stroke="#DD0000"/>
<path d="M67.8073 112.751C67.8464 112.701 67.8879 112.654 67.932 112.61C68.0295 112.514 68.1415 112.395 68.2369 112.294C68.2963 112.231 68.3493 112.175 68.3883 112.135C68.5167 112.004 68.6232 111.91 68.7401 111.838C68.9567 111.704 69.2872 111.594 70.0114 111.622C70.0683 111.624 70.1256 111.627 70.183 111.629C71.7163 111.686 73.4244 111.75 75.0774 112.958C75.9918 113.626 76.603 114.144 77.1477 114.861C77.6973 115.585 78.1977 116.536 78.8453 118.094C79.0832 118.667 79.354 119.268 79.6331 119.887C80.1462 121.025 80.6871 122.225 81.1025 123.424C81.4188 124.337 81.6472 125.212 81.7227 126.007C81.7983 126.802 81.7178 127.486 81.4494 128.041C80.891 129.197 79.5353 130.143 77.8819 130.664C76.2376 131.181 74.4203 131.237 73.0495 130.739C71.7027 130.25 70.5965 129.095 69.6579 127.588C68.7226 126.087 67.9921 124.299 67.3677 122.633C66.5881 120.552 66.7374 118.471 66.9288 116.771C66.9634 116.464 66.9874 116.146 67.0107 115.837C67.0159 115.769 67.021 115.702 67.0261 115.635C67.0553 115.258 67.0873 114.893 67.1405 114.541C67.2473 113.835 67.4337 113.23 67.8073 112.751L67.4176 112.447L67.8073 112.751Z" fill="#DD0000" fill-opacity="0.25" stroke="#DD0000"/>
<path d="M87.3263 113.284L87.3263 113.284L87.3381 113.278C87.9695 112.946 88.5204 112.366 89.0622 111.773C89.1313 111.697 89.2007 111.62 89.2707 111.543C89.7685 110.994 90.2957 110.413 90.9411 109.862C92.3848 108.629 94.4311 107.541 97.9179 107.648C101.472 107.757 106.029 108.78 110.589 110.118C115.141 111.453 119.66 113.092 123.129 114.415C124.885 115.084 126.464 115.561 127.807 115.963L127.906 115.993C129.215 116.385 130.263 116.699 131.053 117.053C131.869 117.418 132.295 117.777 132.471 118.191C132.645 118.599 132.634 119.2 132.213 120.199C131.814 121.143 130.793 122.388 129.346 123.784C127.915 125.166 126.118 126.648 124.234 128.065C120.458 130.907 116.387 133.448 114.284 134.387C113.225 134.86 112.785 134.78 112.611 134.671C112.428 134.555 112.285 134.257 112.224 133.617C112.195 133.32 112.187 132.994 112.181 132.644C112.18 132.607 112.18 132.571 112.179 132.534C112.174 132.223 112.168 131.896 112.147 131.584C112.103 130.922 111.985 130.142 111.48 129.65C110.741 128.93 110.184 128.542 109.578 128.251C109.223 128.081 108.835 127.938 108.4 127.778C108.143 127.684 107.869 127.584 107.577 127.468C107.188 127.314 106.953 127.182 106.755 127.063C106.724 127.044 106.692 127.025 106.659 127.005C106.49 126.902 106.304 126.788 106.069 126.69C105.508 126.454 104.681 126.306 102.751 126.182C101.174 126.08 98.9692 126.205 96.7311 126.332C96.1702 126.363 95.6071 126.395 95.0513 126.424C93.6521 126.495 92.2905 126.546 91.0921 126.525C89.8848 126.503 88.8831 126.408 88.1863 126.205C87.8251 126.1 87.5869 125.999 87.4336 125.909C87.2813 125.818 87.2418 125.755 87.2323 125.736C87.2196 125.71 87.1931 125.626 87.3709 125.261C87.407 125.186 87.4499 125.105 87.4964 125.016C87.8355 124.371 88.369 123.355 87.923 122.068C87.5452 120.978 86.815 119.705 86.1251 118.502C86.0057 118.294 85.8874 118.088 85.7724 117.885C85.3751 117.185 85.012 116.519 84.7443 115.917C84.4723 115.306 84.3217 114.81 84.3081 114.438C84.2959 114.106 84.3991 113.944 84.5243 113.838C84.6774 113.709 84.9248 113.615 85.2691 113.556C85.5677 113.504 85.8833 113.486 86.1994 113.468C86.2436 113.465 86.2878 113.463 86.332 113.46C86.5046 113.45 86.6815 113.438 86.8397 113.416C86.9897 113.396 87.1695 113.361 87.3263 113.284Z" fill="#DD0000" fill-opacity="0.25" stroke="#DD0000"/>
<path d="M96.0035 115.278L87.2492 117.418C86.2922 117.652 85.3125 117.128 84.9757 116.202C84.6553 115.322 85.0134 114.338 85.8249 113.87L87.1251 113.119C87.3128 113.011 87.5096 112.919 87.7133 112.845L96.7867 109.544C98.3274 108.983 99.9869 108.831 101.604 109.102L115.262 111.389C116.212 111.548 117.114 111.917 117.902 112.469L122.503 115.689C124.128 116.826 124.062 119.254 122.377 120.3C121.271 120.987 119.836 120.81 118.932 119.874L118.397 119.321C118.073 118.986 117.702 118.701 117.295 118.475L112.795 115.977C111.127 115.051 109.239 114.597 107.334 114.664L98.1326 114.983C97.4147 115.008 96.7013 115.107 96.0035 115.278Z" fill="#DD0000" fill-opacity="0.25" stroke="#DD0000"/>
<path d="M120.766 122.459C121.882 121.283 123.157 120.504 124.237 119.904C125.313 119.305 126.472 118.825 127.655 118.458C128.584 118.17 129.651 117.841 130.71 117.593C131.774 117.343 132.796 117.184 133.636 117.22C134.878 117.274 135.659 117.446 136.271 117.765C136.882 118.084 137.377 118.575 138.004 119.373C139.178 120.868 139.362 122.694 139.562 124.922C139.736 126.859 139.426 128.004 139.01 129.539C138.975 129.668 138.939 129.8 138.903 129.935C138.82 130.246 138.754 130.518 138.697 130.752C138.674 130.847 138.652 130.937 138.631 131.02C138.559 131.312 138.497 131.532 138.415 131.738C138.257 132.133 138.006 132.52 137.365 133.22C136.091 134.612 135.032 135.498 132.574 136.807C132.493 136.85 132.413 136.893 132.333 136.935C129.921 138.22 127.858 139.319 125.139 139.728C122.306 140.154 120.534 139.941 118.479 138.982C117.417 138.487 116.619 138 116.037 137.4C115.466 136.811 115.081 136.09 114.89 135.084C114.702 134.098 114.83 133.171 115.162 132.154C115.442 131.296 115.856 130.403 116.338 129.366C116.436 129.154 116.538 128.935 116.642 128.709C117.825 126.136 118.916 124.409 120.766 122.459Z" fill="#DD0000" fill-opacity="0.25" stroke="#DD0000"/>
<path d="M134.352 119.777C134.419 119.779 134.486 119.781 134.554 119.782C134.515 120.349 134.527 121.1 134.569 121.927C134.63 123.147 134.759 124.606 134.925 126.053C135.09 127.5 135.291 128.941 135.497 130.125C135.657 131.045 135.825 131.849 135.99 132.378C133.355 134.593 128.505 137.27 125.398 138.418C123.799 139.008 122.962 139.077 122.374 138.963C122.079 138.906 121.82 138.798 121.53 138.647C121.402 138.581 121.273 138.509 121.13 138.429C121.109 138.417 121.088 138.405 121.066 138.393C120.9 138.3 120.719 138.201 120.52 138.1C119.792 137.733 119.354 137.406 119.064 136.983C118.774 136.558 118.592 135.978 118.503 135.024C118.328 133.142 118.679 131.047 119.815 128.869C120.939 126.711 121.95 125.914 124.204 124.162C126.426 122.435 128.653 121.205 130.856 120.32C131.917 119.895 132.749 119.785 133.42 119.765C133.719 119.756 133.987 119.765 134.244 119.773C134.28 119.775 134.316 119.776 134.352 119.777ZM138.36 126.542C138.31 126.747 138.255 126.971 138.198 127.221C138.068 127.56 137.907 128.223 137.737 128.921C137.728 128.958 137.719 128.996 137.709 129.034C137.524 129.796 137.319 130.631 137.11 131.303C137.022 131.404 136.925 131.509 136.818 131.619C136.714 131.193 136.599 130.628 136.482 129.954C136.281 128.793 136.082 127.372 135.918 125.939C135.755 124.507 135.627 123.07 135.567 121.877C135.506 120.658 135.521 119.765 135.611 119.373C135.616 119.354 135.62 119.338 135.624 119.323C135.699 119.371 135.8 119.451 135.923 119.572C136.081 119.728 136.254 119.93 136.436 120.166C137.172 121.122 137.95 122.517 138.291 123.295C138.617 124.041 138.688 124.555 138.644 125.091C138.608 125.517 138.503 125.952 138.36 126.542ZM135.522 119.272C135.522 119.272 135.523 119.272 135.524 119.273C135.523 119.273 135.523 119.272 135.522 119.272Z" fill="#DD0000" fill-opacity="0.25" stroke="#DD0000"/>
<path d="M141.282 121.033L141.312 121.03L141.341 121.023L145.259 120.074C145.51 120.013 145.749 119.907 145.962 119.761L146.692 119.261C147.099 118.983 147.653 119.254 147.683 119.746C147.687 119.814 147.68 119.882 147.662 119.948L147.056 122.209C146.792 123.195 146.371 124.133 145.808 124.985L145.407 125.591C145.084 126.081 144.715 126.541 144.307 126.963L142.854 128.464C142.649 128.676 142.406 128.849 142.138 128.973L140.894 129.548C140.67 129.651 140.405 129.595 140.243 129.41C140.141 129.295 140.092 129.142 140.107 128.989L140.353 126.452C140.435 125.606 140.371 124.752 140.165 123.927L139.661 121.916C139.636 121.816 139.637 121.711 139.664 121.611C139.728 121.371 139.932 121.194 140.179 121.165L141.282 121.033Z" fill="#DD0000" fill-opacity="0.25" stroke="#DD0000"/>
<path d="M139.192 71.4449C140.15 71.3106 140.853 71.2307 141.362 71.1899C141.327 71.2137 141.293 71.2373 141.262 71.2605C141.191 71.3131 141.106 71.3813 141.036 71.4611C140.99 71.5136 140.829 71.7042 140.873 71.9738C140.925 72.2924 141.196 72.4071 141.295 72.4402C141.418 72.4809 141.557 72.4945 141.687 72.499C142.515 72.528 143.435 72.3166 144.332 72.1103C144.523 72.0666 144.712 72.0231 144.899 71.9822C146.01 71.7391 147.126 71.5613 148.251 71.7646C149.471 71.9848 150.233 72.1772 150.975 72.5562C151.723 72.9384 152.481 73.5256 153.657 74.5892C154.836 75.6553 156.162 76.8931 157.288 78.1956C158.42 79.5056 159.312 80.8384 159.67 82.0892C160.029 83.3449 159.922 84.2814 159.545 85.079C159.158 85.8997 158.464 86.6222 157.548 87.4017C156.748 88.0832 155.578 88.3118 154.26 88.4935C154.132 88.5112 154.002 88.5286 153.871 88.546C153.355 88.6147 152.828 88.6851 152.339 88.786C151.724 88.9129 151.117 89.0974 150.608 89.424C150.124 89.7351 149.812 90.0608 149.623 90.424C149.436 90.7837 149.395 91.1338 149.374 91.4259C149.37 91.4783 149.367 91.5295 149.363 91.5797C149.331 92.0747 149.305 92.4799 148.847 93.0126C147.619 94.4432 145.97 95.9317 144.421 96.6661C144.188 96.7767 143.868 96.7639 143.438 96.6191C143.082 96.4995 142.731 96.3188 142.383 96.14C142.312 96.1035 142.241 96.0671 142.17 96.0313C141.974 95.9318 141.767 95.8315 141.579 95.7675C141.418 95.7132 141.136 95.6345 140.864 95.7464C140.513 95.8913 140.419 96.229 140.408 96.4752C140.397 96.7192 140.452 97.0171 140.547 97.3582C140.746 98.08 141.217 99.0285 141.805 100.072C142.398 101.126 143.135 102.319 143.893 103.541L144.034 103.767C145.519 106.16 147.047 108.622 147.81 110.451C148.603 112.354 148.82 113.463 148.838 114.269C148.848 114.672 148.808 115.015 148.754 115.365C148.741 115.449 148.727 115.534 148.712 115.623C148.667 115.897 148.618 116.196 148.59 116.516C148.552 116.931 148.562 117.208 148.568 117.388L148.569 117.393C148.538 117.403 148.502 117.415 148.459 117.429L148.428 117.44C148.198 117.516 147.856 117.63 147.36 117.833C146.373 118.236 144.749 118.811 143.129 119.291C141.492 119.776 139.927 120.144 139.028 120.168C138.772 120.175 138.641 120.151 138.582 120.135C138.583 120.107 138.588 120.066 138.597 120.006C138.602 119.977 138.609 119.941 138.617 119.9C138.651 119.723 138.704 119.449 138.69 119.195C138.67 118.825 138.519 118.444 138.115 118.148C137.922 118.007 137.748 117.86 137.559 117.702C137.5 117.652 137.439 117.601 137.376 117.548C137.12 117.335 136.837 117.112 136.502 116.913C135.816 116.504 134.955 116.224 133.659 116.22C132.959 116.218 132.358 116.401 131.8 116.643C131.523 116.763 131.252 116.9 130.987 117.036C130.948 117.056 130.909 117.076 130.87 117.096C130.641 117.213 130.415 117.329 130.177 117.442C129.098 117.952 127.812 118.372 125.746 118.021C123.634 117.662 121.46 116.684 119.145 115.579C118.915 115.469 118.684 115.358 118.452 115.247C116.365 114.246 114.175 113.195 111.896 112.519C107.813 111.307 105.448 111.084 102.78 110.832C102.163 110.774 101.53 110.714 100.856 110.64C100.719 110.625 100.587 110.61 100.458 110.596C98.8946 110.424 97.899 110.315 96.9807 110.29C95.9747 110.262 95.0678 110.335 93.6128 110.521C92.8234 110.622 92.0207 110.901 91.2646 111.222C90.7483 111.441 90.23 111.689 89.7457 111.922C89.5259 112.028 89.3131 112.13 89.1107 112.224C88.4372 112.539 87.8806 112.767 87.4439 112.843C87.0179 112.917 86.8507 112.828 86.7516 112.694C86.6876 112.607 86.6249 112.455 86.5909 112.209C86.5574 111.968 86.5561 111.667 86.5876 111.314C86.6507 110.608 86.8396 109.752 87.0983 108.852C87.615 107.056 88.3874 105.161 88.8835 104.097C89.0034 103.84 89.0964 103.68 89.1671 103.583C89.1839 103.56 89.1981 103.542 89.2098 103.528C89.217 103.531 89.225 103.535 89.2343 103.538C89.2576 103.548 89.2884 103.56 89.3314 103.577C89.5588 103.667 89.9051 103.774 90.364 103.615C90.7822 103.469 91.2327 103.122 91.771 102.503C92.6656 101.474 93.5673 100.074 94.5285 98.5815C94.711 98.2982 94.8956 98.0115 95.0827 97.7234C96.2689 95.8972 97.5762 93.9784 99.1385 92.3305C100.659 90.727 102.503 89.6225 104.137 88.6446L104.205 88.6038C105.019 88.116 105.793 87.6502 106.414 87.1723C107.032 86.6976 107.559 86.1679 107.819 85.5279C107.956 85.191 107.994 84.8564 107.914 84.5346C107.835 84.2169 107.653 83.9623 107.437 83.7596C107.026 83.3718 106.412 83.1 105.851 82.8747C105.694 82.8118 105.54 82.7519 105.389 82.6933C104.962 82.5274 104.563 82.3723 104.215 82.1912C103.732 81.9397 103.513 81.7162 103.453 81.5164C103.27 80.9091 103.365 80.3751 103.659 79.8819C103.964 79.372 104.489 78.8946 105.175 78.4647C106.547 77.6046 108.424 77.0186 109.935 76.7329C110.985 76.5344 112.114 76.3203 113.299 76.0957C122.082 74.4297 133.911 72.1862 139.192 71.4449Z" fill="#DD0000" fill-opacity="0.25" stroke="#DD0000"/>
<path d="M100.624 72.4398L100.264 72.7869L100.624 72.4398C100.205 72.0051 99.8384 71.5596 99.4587 71.0979C99.2076 70.7926 98.9507 70.4802 98.6688 70.1592L98.2931 70.4891L98.6688 70.1592C98.5653 70.0414 98.4592 69.9225 98.3508 69.8012C97.7627 69.1426 97.1115 68.4133 96.4917 67.4068C95.7627 66.2232 95.0754 64.6487 94.6486 62.3872C94.5659 61.9493 94.4797 61.5011 94.3916 61.0438C93.8781 58.376 93.3052 55.4001 93.0494 52.3726C92.7499 48.8274 92.8908 45.2614 94.0501 42.1007C96.3698 35.7766 101.178 32.8148 106.324 30.349C111.321 27.9547 115.187 28.9122 119.316 30.0185C121.414 30.5806 122.225 30.8251 122.991 31.4728C123.383 31.8041 123.775 32.2528 124.308 32.9414C124.618 33.3417 124.965 33.8087 125.38 34.3677C125.683 34.7748 126.021 35.2307 126.408 35.7452C128.204 38.132 130.215 41.6846 132.132 45.1649C132.396 45.6433 132.658 46.1205 132.917 46.593C134.531 49.5347 136.046 52.2952 137.24 54.0217C137.925 55.0116 138.405 55.6309 138.757 55.99C138.931 56.1669 139.103 56.3122 139.279 56.3987C139.472 56.4931 139.717 56.5364 139.958 56.4177C140.16 56.3186 140.27 56.1446 140.322 56.0545C140.353 56.0023 140.38 55.9488 140.402 55.9069L140.408 55.8942C140.428 55.8545 140.444 55.8231 140.461 55.7926C140.487 55.7471 140.504 55.7221 140.515 55.709C141.259 55.6723 141.635 55.0985 141.862 54.7489C141.882 54.7183 141.901 54.6888 141.92 54.6604C142.025 54.4986 142.108 54.3702 142.204 54.2587C142.31 54.1371 142.402 54.0724 142.5 54.0417C142.74 53.9661 142.942 53.8615 143.094 53.7832C143.109 53.7756 143.123 53.7682 143.137 53.7611C143.308 53.6733 143.396 53.6359 143.474 53.6235C143.563 53.6096 143.799 53.598 144.426 54.2139C145.076 54.8526 145.986 55.7606 146.776 56.7976C147.573 57.8434 148.209 58.9687 148.371 60.0377C148.53 61.0815 148.219 62.0524 147.731 62.9799C147.488 63.4435 147.206 63.8848 146.926 64.314C146.89 64.3688 146.854 64.4237 146.818 64.4785C146.579 64.8445 146.341 65.2082 146.15 65.5507L146.107 65.629C145.92 65.9664 145.791 66.1983 145.684 66.3701C145.569 66.5542 145.504 66.6282 145.456 66.6683C145.416 66.7016 145.364 66.7322 145.229 66.7756C145.141 66.8038 145.049 66.8286 144.93 66.8607C144.834 66.8865 144.721 66.9171 144.578 66.958C144.404 67.0077 144.199 66.9993 143.922 66.937C143.785 66.9062 143.641 66.8649 143.482 66.8172C143.453 66.8086 143.423 66.7997 143.393 66.7907C143.263 66.7512 143.121 66.7087 142.98 66.6708C142.264 66.479 141.375 66.3603 140.469 67.0607C139.981 67.4379 139.766 67.9505 139.641 68.4492C139.579 68.6968 139.535 68.956 139.495 69.2045C139.491 69.2339 139.486 69.2632 139.481 69.2924C139.446 69.5157 139.411 69.7328 139.365 69.9527C139.263 70.4446 139.111 70.9128 138.812 71.3456C138.515 71.7746 138.052 72.1992 137.28 72.5673C135.684 73.3279 133.191 73.7233 130.616 74.032C130.054 74.0994 129.488 74.1626 128.929 74.2251C126.98 74.4427 125.118 74.6506 123.827 74.9903C123.024 75.2019 122.503 75.3448 122.167 75.4598C121.866 75.5626 121.574 75.6827 121.408 75.9339C121.322 76.0648 121.294 76.1944 121.28 76.2683C121.274 76.2989 121.27 76.3218 121.267 76.3411C121.26 76.3775 121.256 76.401 121.246 76.4389C121.224 76.5209 121.168 76.6788 120.939 76.9565C120.632 77.3294 120.397 77.7749 120.196 78.2205C120.059 78.5257 119.929 78.8531 119.804 79.168C119.748 79.3074 119.694 79.4444 119.64 79.5759C119.268 80.4899 118.913 81.1722 118.385 81.4992C117.807 81.8564 117.279 81.931 116.713 81.8392C116.118 81.7427 115.476 81.4621 114.684 81.0704C114.007 80.7358 113.476 80.1118 112.901 79.402C112.87 79.3643 112.839 79.3263 112.808 79.2879C112.294 78.6505 111.71 77.9278 110.966 77.5683C110.567 77.3756 110.21 77.3062 109.871 77.3319C109.541 77.3569 109.27 77.47 109.055 77.568C109.017 77.5854 108.98 77.6024 108.944 77.6189C108.572 77.7909 108.329 77.9036 107.913 77.8154C107.859 77.804 107.808 77.7931 107.758 77.7825C107.189 77.6625 106.829 77.5864 106.423 77.4118C105.982 77.2225 105.469 76.9074 104.62 76.2559C103.418 75.3343 101.873 73.7344 100.696 72.5147L100.624 72.4398Z" fill="#DD0000" fill-opacity="0.25" stroke="#DD0000"/>
<path d="M99.7838 51.4266L99.9529 50.7954L100.491 50.3994C100.59 50.3266 100.7 50.2695 100.816 50.2302C101.222 50.0928 101.671 50.1835 101.991 50.4679L102.412 50.8411C103.019 51.3794 103.332 52.1755 103.254 52.9829L103.213 53.3988C103.207 53.4634 103.195 53.5274 103.179 53.59C103.077 53.9678 102.786 54.2767 102.41 54.4038C102.261 54.4544 102.101 54.4757 101.945 54.4656L101.757 54.4535C101.121 54.4125 100.537 54.0927 100.159 53.5799L100.132 53.5427C99.8395 53.145 99.6855 52.6624 99.6939 52.1689L99.6958 52.0543C99.6993 51.8423 99.7289 51.6315 99.7838 51.4266ZM116.808 52.3365C116.665 51.836 116.652 51.3076 116.771 50.8017L117.121 50.4943C117.382 50.2649 117.686 50.0894 118.015 49.978C118.341 49.8678 118.685 49.8225 119.028 49.8446L120.073 49.912C120.104 49.914 120.134 49.919 120.164 49.9269C120.334 49.9724 120.463 50.1099 120.498 50.2821L120.715 51.3421C120.784 51.679 120.774 52.0272 120.685 52.3593L120.533 52.9252C120.427 53.3211 120.168 53.6586 119.813 53.8635C119.549 54.0161 119.245 54.087 118.941 54.0673L118.635 54.0476C118.205 54.0199 117.796 53.8497 117.474 53.5639C117.198 53.3195 116.998 53.0015 116.897 52.6474L116.808 52.3365Z" fill="#DD0000" fill-opacity="0.25" stroke="#DD0000"/>
<path d="M116.606 50.0758L116.684 49.7843C116.729 49.8225 116.779 49.8538 116.833 49.8767C116.818 49.8898 116.802 49.903 116.787 49.9164L116.63 50.0544C116.622 50.0615 116.614 50.0686 116.606 50.0758ZM99.7664 50.1551L99.8329 49.907C99.8689 49.9386 99.9088 49.9656 99.9514 49.9875C99.8866 50.0402 99.8249 50.0961 99.7664 50.1551Z" fill="#DD0000" fill-opacity="0.25" stroke="#DD0000"/>
<path d="M116.85 75.9369L117.868 75.7824C120.24 75.4224 122.417 74.261 124.037 72.4915L126.301 70.0182C127.625 68.5728 128.517 66.7859 128.877 64.8597L129.843 59.7028C129.961 59.0732 130.013 58.4331 129.999 57.7928L129.936 54.9536C129.88 52.411 131.724 50.2236 134.239 49.8477L136.095 49.5704C137.027 49.4311 137.949 49.876 138.42 50.692C139.373 52.342 141.523 52.842 143.106 51.7817L144.007 51.1781C145.367 50.2671 147.189 50.4877 148.292 51.6968L149.982 53.5486C151.673 55.4017 152.085 58.0892 151.028 60.3642L148.681 65.4141C147.744 67.4304 145.698 68.6961 143.475 68.6337L142.265 68.5998C140.689 68.5556 139.207 69.3484 138.369 70.684L137.93 71.3846C137.504 72.0628 136.732 72.4424 135.935 72.3652C135.554 72.3281 135.168 72.362 134.799 72.465L127.483 74.5047C127.03 74.631 126.567 74.7175 126.098 74.763L125.928 74.7796C124.518 74.9168 123.165 75.4085 121.996 76.209C121.324 76.6692 120.722 77.2247 120.21 77.8581L119.024 79.3245C118.83 79.565 118.688 79.8437 118.608 80.1425C118.435 80.7884 117.771 81.1718 117.125 80.9987L117.054 80.9797C116.817 80.9161 116.571 80.8912 116.326 80.9059L115.246 80.9707C114.937 80.9893 114.643 80.8313 114.488 80.5626C114.414 80.4338 114.324 80.3146 114.22 80.2077L113.292 79.2475C113.027 78.9739 112.732 78.729 112.415 78.5196C111.424 77.8653 110.232 77.5665 109.049 77.6816C108.296 77.7548 107.537 77.6228 106.853 77.2995L105.505 76.6618C104.889 76.3706 104.306 76.014 103.766 75.5981L102.434 74.5711C101.571 73.9065 100.829 73.0984 100.241 72.1824L98.9128 70.1162C98.5882 69.611 98.3122 69.0762 98.0885 68.519L95.7552 62.7058C95.4284 61.8916 95.2633 61.0215 95.2691 60.1442L95.3103 53.9184C95.3106 53.8648 95.3525 53.8206 95.406 53.8174C95.4572 53.8143 95.5027 53.8498 95.5123 53.9002L97.104 62.3164C97.2676 63.1814 97.5393 64.0223 97.9127 64.8194L99.7422 68.7247C100.617 70.5917 102.022 72.1599 103.782 73.2338L104.685 73.7852C105.901 74.5269 107.255 75.0136 108.665 75.2157L113.784 75.9495C114.801 76.0953 115.834 76.0911 116.85 75.9369Z" fill="#DD0000" fill-opacity="0.25" stroke="#DD0000"/>
<path d="M95.6081 62.0386L96.0951 61.9256L95.6081 62.0387C96.017 63.7996 96.7229 65.5928 97.3797 67.1828C97.4809 67.4277 97.5805 67.6669 97.6776 67.9C98.2211 69.2054 98.6843 70.318 98.8944 71.1574C98.9319 71.3069 98.9666 71.4378 98.9985 71.5522C98.8023 71.6116 98.597 71.7208 98.3827 71.8858C98.1353 72.0763 97.8576 72.3109 97.5654 72.5577C97.4982 72.6145 97.4302 72.6719 97.3617 72.7296C96.9894 73.0428 96.5887 73.3738 96.1617 73.6887C95.3013 74.3234 94.372 74.8637 93.4181 75.0589C92.5325 75.2401 91.6744 75.1568 90.8706 74.9561C91.6148 74.6518 92.364 74.1072 93.0269 73.5195C93.8772 72.7656 94.6485 71.8837 95.1734 71.1711C95.3566 70.9223 95.499 70.8751 95.5814 70.8571C95.6347 70.8454 95.6814 70.8422 95.7571 70.8371L95.7793 70.8356C95.8172 70.833 95.8772 70.8288 95.9383 70.8177C95.9995 70.8065 96.094 70.7833 96.19 70.724C96.4367 70.5714 96.4934 70.3199 96.4938 70.1402C96.4941 69.9806 96.4537 69.7985 96.401 69.6091C96.292 69.2174 96.0697 68.5928 95.7119 67.6093C95.0658 65.8334 93.7686 63.2594 92.4116 60.5669C92.2267 60.2 92.0407 59.8309 91.855 59.4612C90.2924 56.3501 88.7529 53.1974 88.0356 50.9009C87.3129 48.5874 87.3276 47.5661 87.5098 46.886C87.5917 46.5806 87.7093 46.3302 87.8538 46.0226C87.8778 45.9714 87.9026 45.9187 87.9281 45.8639C88.1039 45.4854 88.2916 45.0469 88.4127 44.4477C88.4468 44.2788 88.4772 44.1261 88.5049 43.9871C88.6614 43.2018 88.7308 42.8537 88.8877 42.491C89.0669 42.0767 89.3583 41.6506 90.0678 40.6131C90.0997 40.5665 90.1324 40.5186 90.1661 40.4694C90.8014 39.5401 91.7925 38.4934 92.8112 37.4174C92.9737 37.2458 93.137 37.0734 93.2996 36.9006C93.8819 36.2818 94.4521 35.6615 94.9287 35.0709C95.4012 34.4854 95.8058 33.9002 96.0345 33.3505C96.2581 32.8134 96.3202 32.3286 96.1162 31.9133C95.9215 31.5168 95.5446 31.3219 95.2803 31.2009C95.1805 31.1552 95.0916 31.1173 95.0103 31.0827C94.8327 31.007 94.6916 30.9469 94.5545 30.8554C94.3942 30.7485 94.2997 30.6323 94.2645 30.4392C94.2245 30.2202 94.1839 30.0259 94.1465 29.8463C94.0503 29.3857 93.9745 29.0221 93.9804 28.5878C93.9882 28.0209 94.1455 27.3262 94.7112 26.2409C95.8569 24.0428 97.4453 22.0173 100.008 19.5883C100.406 19.2114 100.697 18.885 100.914 18.6207C100.989 18.8944 101.091 19.2339 101.236 19.643C101.416 20.1484 101.413 20.5779 101.208 20.9415C100.902 21.4842 100.68 21.8915 100.531 22.2165C100.381 22.5426 100.287 22.82 100.263 23.0997C100.239 23.3848 100.29 23.6293 100.356 23.8709C100.381 23.9624 100.407 24.0496 100.434 24.1411C100.483 24.3077 100.537 24.4884 100.597 24.7346C100.804 25.5764 101.372 26.7028 101.904 27.5875C102.173 28.0355 102.446 28.441 102.676 28.7362C102.789 28.8817 102.903 29.0142 103.009 29.1132C103.061 29.1615 103.127 29.2167 103.203 29.2605C103.258 29.2927 103.421 29.3806 103.627 29.3384C103.903 29.2819 104.016 29.0591 104.049 28.9247C104.077 28.8095 104.067 28.7019 104.059 28.6419C104.042 28.5095 103.998 28.3531 103.952 28.2052C103.903 28.0488 103.832 27.8458 103.756 27.6254C103.691 27.4379 103.622 27.2377 103.558 27.0431C103.253 26.1184 102.987 25.1055 103.092 24.3763C103.208 23.5636 103.382 23.0518 103.678 22.5367C103.963 22.0422 104.363 21.5393 104.976 20.767C105.033 20.6952 105.092 20.6209 105.153 20.5442C106.551 18.7824 107.593 17.473 109.907 15.8626C112.246 14.234 113.389 13.5723 116.797 12.4395C116.893 12.4073 116.99 12.3752 117.086 12.3433C120.44 11.2272 123.445 10.2274 126.909 10.2062C128.701 10.1953 129.71 10.3522 130.723 10.6823C131.348 10.8861 131.96 11.1488 132.75 11.4883C133.302 11.7252 133.941 11.9995 134.732 12.3173C138.476 13.8207 141.962 15.3224 145.362 17.6449C147.074 18.8143 148.137 19.659 149.035 20.5648C149.935 21.473 150.682 22.4556 151.756 23.925C151.882 24.0971 152.003 24.262 152.12 24.421C153.008 25.6317 153.641 26.4949 154.186 27.4915C154.797 28.6089 155.303 29.9065 155.899 32.0513C156.485 34.1654 156.708 36.4192 156.894 38.6975C156.915 38.9451 156.934 39.1931 156.954 39.4413C157.115 41.4601 157.277 43.4894 157.679 45.3826C158.565 49.5611 159.091 51.2183 160.4 53.0735C161.05 53.9946 161.617 54.4734 162.323 54.6389C162.659 54.7176 162.995 54.7174 163.33 54.6962C163.498 54.6856 163.674 54.669 163.854 54.652L163.865 54.6509C164.043 54.634 164.228 54.6165 164.428 54.6019C165.388 54.5318 166.484 53.9947 167.363 53.5361C167.507 53.4609 167.645 53.3877 167.777 53.3176C168.069 53.1631 168.333 53.0233 168.572 52.9085C168.688 52.8525 168.792 52.8058 168.883 52.7687C168.7 53.0376 168.394 53.3757 168.008 53.7054C166.986 54.5775 165.69 55.6355 163.983 56.0435C162.261 56.4551 160.567 56.2081 159.31 55.803C159.142 55.7489 159.039 55.6432 158.956 55.4724C158.864 55.2805 158.818 55.049 158.763 54.7735C158.739 54.6487 158.71 54.5021 158.669 54.372C158.632 54.2511 158.564 54.0709 158.42 53.9296C158.241 53.755 158.006 53.6943 157.768 53.7381C157.569 53.775 157.383 53.8821 157.218 54.0017C156.854 54.2651 156.494 54.7173 156.155 55.2097C155.807 55.7148 155.445 56.318 155.085 56.9276C155.016 57.0443 154.947 57.1609 154.879 57.277C154.216 58.4029 153.578 59.4865 153.011 60.1261C152.464 60.7429 151.917 60.8367 151.473 60.8854C151.444 60.8885 151.414 60.8917 151.382 60.8949C151.295 60.9039 151.2 60.9137 151.119 60.9259C151.011 60.9423 150.858 60.9715 150.717 61.0479C150.553 61.137 150.411 61.2863 150.351 61.503C150.298 61.6909 150.321 61.8801 150.358 62.0394C150.456 62.45 150.755 62.7687 151.046 63.0175C151.31 63.2439 151.64 63.471 151.968 63.6966C152.011 63.726 152.053 63.7555 152.096 63.7849C152.865 64.3154 153.648 64.8888 154.132 65.6844C155.176 67.3985 155.507 68.7037 155.816 70.9711C155.973 72.1254 156.154 73.5444 156.184 74.702C156.199 75.2846 156.174 75.7679 156.101 76.1069C156.078 76.2162 156.052 76.2983 156.027 76.358C156.015 76.3396 156.003 76.3189 155.989 76.2959C155.915 76.168 155.835 76.0037 155.732 75.7895L155.722 75.7693C155.624 75.5658 155.51 75.3288 155.374 75.0757C154.807 74.0146 153.86 72.6636 151.896 71.7169C149.451 70.5382 145.19 69.2495 141.902 68.4266C141.812 68.2669 141.719 68.1019 141.623 67.9313C141.675 67.9523 141.732 67.976 141.792 68.0022C141.833 68.0197 141.877 68.0387 141.922 68.0586C142.037 68.1089 142.164 68.1647 142.29 68.2151C142.645 68.3578 143.084 68.4996 143.568 68.4763C144.07 68.4521 144.572 68.2532 145.055 67.8056C145.896 67.0272 146.959 65.803 147.818 64.4211C148.669 63.0499 149.359 61.4602 149.366 59.9649C149.373 58.4317 148.588 57.1114 147.697 56.0498C147.066 55.2967 146.33 54.6188 145.74 54.0756C145.508 53.8618 145.298 53.6688 145.127 53.5003C144.46 52.8459 143.92 52.531 143.337 52.609C143.074 52.6442 142.851 52.7569 142.682 52.8463C142.648 52.8643 142.615 52.8818 142.584 52.8987C142.443 52.9744 142.32 53.0405 142.17 53.098C141.829 53.2294 141.589 53.4726 141.412 53.7071C141.267 53.8994 141.14 54.1211 141.033 54.3081C141.013 54.3428 140.994 54.3762 140.975 54.4081C140.694 54.8937 140.545 55.0337 140.358 55.0449C139.993 55.0668 139.468 54.9322 138.965 54.658C138.527 54.4189 138.173 54.1108 137.976 53.8005C138.042 53.4963 138.106 53.2024 138.167 52.9232C138.377 51.9568 138.549 51.1647 138.617 50.7182C138.633 50.6134 138.644 50.5196 138.648 50.4397C138.651 50.382 138.657 50.2593 138.617 50.1403C138.601 50.0889 138.534 49.9087 138.329 49.819C138.095 49.7166 137.899 49.8199 137.829 49.8665C137.756 49.9161 137.708 49.9746 137.686 50.0036C137.659 50.0386 137.637 50.074 137.619 50.1042C137.498 50.3138 137.349 50.7244 137.22 51.1626C137.087 51.6168 136.958 52.1596 136.893 52.661C136.86 52.9115 136.842 53.1624 136.849 53.3926C136.855 53.5633 136.875 53.7468 136.928 53.9184C136.419 56.307 135.809 59.3966 135.762 61.5843C135.724 63.3423 135.805 64.4917 136.058 65.4801C136.257 66.2582 136.559 66.918 136.959 67.6733C136.943 67.6813 136.928 67.6897 136.913 67.6987C136.762 67.7885 136.642 67.9293 136.589 68.1141C136.541 68.2846 136.564 68.4446 136.599 68.5649C136.667 68.7954 136.82 69.0172 136.974 69.203C137.136 69.3997 137.339 69.6038 137.557 69.8012C137.993 70.1959 138.521 70.5922 138.983 70.8845C139.035 70.9176 139.088 70.9498 139.139 70.9808C138.077 70.526 136.95 69.7946 136.121 68.668C134.091 65.9084 133.092 62.5807 132.035 57.7204C131.516 55.337 131.398 52.9476 131.331 50.6962C131.323 50.4086 131.315 50.1226 131.307 49.8388C131.256 47.9221 131.207 46.1044 130.918 44.5528C130.76 43.7065 130.702 43.1435 130.667 42.744C130.663 42.6976 130.659 42.6517 130.655 42.6063C130.629 42.2954 130.604 42.01 130.517 41.7745C130.396 41.4499 130.176 41.2418 129.895 41.025C129.759 40.9203 129.577 40.7908 129.352 40.6307C129.142 40.4812 128.894 40.305 128.612 40.0977C127.329 39.1541 125.378 38.3754 123.5 37.6256L123.478 37.6167C121.55 36.8469 119.692 36.1035 118.459 35.2271C117.274 34.3852 116.97 33.6411 116.789 32.9973C116.763 32.9017 116.738 32.8004 116.712 32.6954C116.569 32.1093 116.398 31.4062 115.678 30.9022C115.468 30.7553 115.309 30.6279 115.153 30.503C115.067 30.4348 114.983 30.3674 114.892 30.2979C114.654 30.1164 114.387 29.9375 114.046 29.8525C113.37 29.6839 112.581 29.9299 111.32 30.5464C108.703 31.8261 105.059 34.6206 102.286 37.1861C102.003 37.448 101.74 37.6888 101.494 37.9136C100.562 38.7669 99.8804 39.3904 99.3094 40.0678C98.5708 40.9439 98.0173 41.9055 97.2851 43.5565C95.8072 46.8894 95.2261 50.1603 94.8943 53.8196C94.7289 55.6436 94.702 56.8348 94.8225 58.0088C94.9415 59.1682 95.2035 60.2964 95.5932 61.9748L95.5996 62.0022L95.6081 62.0386ZM103.068 28.7778C103.068 28.7778 103.068 28.7758 103.068 28.7723C103.068 28.7761 103.069 28.7779 103.068 28.7778ZM140.471 67.0592C140.167 67.2913 140.015 67.6277 139.939 67.9651C139.192 67.8028 138.547 67.6807 138.062 67.6123C137.554 66.6824 137.229 66.024 137.027 65.2321C136.808 64.3763 136.724 63.3346 136.762 61.606C136.801 59.7748 137.261 57.2308 137.721 55.0083C137.957 55.2137 138.22 55.391 138.487 55.5361C139.094 55.8669 139.807 56.0798 140.418 56.0431C141.211 55.9955 141.604 55.3176 141.839 54.9123L141.841 54.9094C141.864 54.8685 141.887 54.8289 141.909 54.7906C142.017 54.6032 142.107 54.4465 142.21 54.309C142.33 54.15 142.432 54.0688 142.529 54.0314C142.744 53.949 142.931 53.8481 143.073 53.7712C143.1 53.7565 143.126 53.7426 143.15 53.73C143.315 53.6426 143.399 53.6096 143.47 53.6001C143.555 53.5887 143.789 53.5887 144.426 54.2139C144.636 54.42 144.871 54.636 145.119 54.8648C145.694 55.3939 146.343 55.9912 146.931 56.6923C147.763 57.6845 148.371 58.7772 148.366 59.9604C148.36 61.1814 147.784 62.5804 146.968 63.8934C146.159 65.1959 145.154 66.3515 144.376 67.0719C144.05 67.3737 143.767 67.4655 143.52 67.4774C143.254 67.4902 142.977 67.4135 142.662 67.2871C142.552 67.2427 142.448 67.1972 142.339 67.1495C142.29 67.1281 142.24 67.1063 142.188 67.0839C142.03 67.0156 141.857 66.9443 141.683 66.8935C141.332 66.7915 140.88 66.7456 140.471 67.0592ZM138.875 68.7663C139.174 68.8245 139.506 68.8935 139.864 68.9724C139.866 69.0532 139.869 69.1335 139.873 69.2125C139.832 69.1802 139.788 69.1502 139.746 69.1276C139.72 69.1131 139.648 69.0759 139.552 69.063C139.479 69.0534 139.349 69.0559 139.226 69.1257C139.104 69.0076 138.986 68.8877 138.875 68.7663ZM140.282 71.38C140.288 71.3791 140.294 71.378 140.301 71.3768C140.307 71.3813 140.313 71.3857 140.319 71.3901C140.307 71.3868 140.294 71.3834 140.282 71.38ZM141.239 69.2928C141.688 70.1074 142.023 70.7559 142.266 71.2646C142.065 71.1984 141.876 71.1239 141.7 71.0427C141.437 70.7808 141.175 70.5112 140.932 70.2601C140.931 70.052 140.915 69.8231 140.9 69.6069L140.896 69.5532C140.888 69.4359 140.88 69.3194 140.874 69.2048C140.994 69.2334 141.115 69.2627 141.239 69.2928ZM137.65 50.362C137.65 50.3618 137.65 50.3642 137.65 50.3695C137.65 50.3648 137.65 50.3621 137.65 50.362ZM155.963 76.4698C155.963 76.47 155.964 76.4697 155.964 76.469L155.963 76.4698Z" fill="#DD0000" fill-opacity="0.25" stroke="#DD0000"/>
<mask id="path-24-inside-1_1110_3573" fill="white">
<path fill-rule="evenodd" clip-rule="evenodd" d="M109.117 63.7047C109.643 62.969 110.703 62.8791 111.345 63.5157L112.142 64.3058C112.278 64.4402 112.279 64.6591 112.145 64.7947V64.7947C112.01 64.9302 111.791 64.9312 111.656 64.7968L111.124 64.2696C110.645 63.7949 109.855 63.8619 109.463 64.4105L108.93 65.1553C108.819 65.3106 108.603 65.3465 108.448 65.2355V65.2355C108.293 65.1245 108.257 64.9086 108.368 64.7533L109.117 63.7047Z"/>
</mask>
<path fill-rule="evenodd" clip-rule="evenodd" d="M109.117 63.7047C109.643 62.969 110.703 62.8791 111.345 63.5157L112.142 64.3058C112.278 64.4402 112.279 64.6591 112.145 64.7947V64.7947C112.01 64.9302 111.791 64.9312 111.656 64.7968L111.124 64.2696C110.645 63.7949 109.855 63.8619 109.463 64.4105L108.93 65.1553C108.819 65.3106 108.603 65.3465 108.448 65.2355V65.2355C108.293 65.1245 108.257 64.9086 108.368 64.7533L109.117 63.7047Z" fill="#DD0000" fill-opacity="0.25"/>
<path d="M109.463 64.4105L108.649 63.829L109.463 64.4105ZM112.142 64.3058L111.438 65.0161L112.142 64.3058ZM111.345 63.5157L110.641 64.2259L111.345 63.5157ZM110.42 64.9798L110.952 65.5071L112.36 64.0866L111.828 63.5593L110.42 64.9798ZM109.744 65.7368L110.276 64.992L108.649 63.829L108.117 64.5738L109.744 65.7368ZM112.846 63.5956L112.049 62.8054L110.641 64.2259L111.438 65.0161L112.846 63.5956ZM108.304 63.1232L107.554 64.1718L109.181 65.3348L109.931 64.2862L108.304 63.1232ZM109.03 64.422C109.324 64.6321 109.392 65.0408 109.181 65.3348L107.554 64.1718C107.122 64.7765 107.262 65.6169 107.867 66.0491L109.03 64.422ZM108.117 64.5738C108.327 64.2798 108.736 64.2118 109.03 64.422L107.867 66.0491C108.471 66.4812 109.312 66.3414 109.744 65.7368L108.117 64.5738ZM111.828 63.5593C110.911 62.651 109.399 62.7793 108.649 63.829L110.276 64.992C110.31 64.9446 110.378 64.9388 110.42 64.9798L111.828 63.5593ZM111.434 64.0907C111.689 63.834 112.103 63.8322 112.36 64.0866L110.952 65.5071C111.48 66.0302 112.332 66.0264 112.855 65.4986L111.434 64.0907ZM112.855 65.4986C113.378 64.9708 113.374 64.1188 112.846 63.5956L111.438 65.0161C111.182 64.7617 111.18 64.3474 111.434 64.0907L112.855 65.4986ZM112.049 62.8054C110.969 61.7352 109.188 61.8863 108.304 63.1232L109.931 64.2862C110.099 64.0516 110.436 64.023 110.641 64.2259L112.049 62.8054Z" fill="#DD0000" mask="url(#path-24-inside-1_1110_3573)"/>
<path d="M133.049 116.144C132.638 115.619 132.577 114.966 132.685 114.256C132.762 113.755 132.903 113.306 133.035 112.889C133.099 112.689 133.16 112.495 133.211 112.307C133.271 112.08 133.457 111.929 133.971 111.817C134.18 111.771 134.403 111.74 134.65 111.706C134.698 111.7 134.746 111.693 134.795 111.686C135.087 111.645 135.41 111.595 135.707 111.506C136.243 111.346 136.834 111.16 137.46 110.962C138.882 110.515 140.487 110.009 142.051 109.614C143.172 109.33 144.251 109.11 145.199 109.012C146.157 108.913 146.93 108.947 147.467 109.129C148.664 109.535 149.113 110.671 149.154 112.191C149.191 113.565 148.884 115.062 148.66 116.156C148.638 116.262 148.617 116.364 148.597 116.462C148.496 116.963 148.357 117.303 148.195 117.55C148.037 117.792 147.841 117.967 147.591 118.117C147.332 118.273 147.019 118.4 146.619 118.545C146.524 118.579 146.424 118.615 146.319 118.652C145.996 118.767 145.632 118.896 145.243 119.055C144.282 119.448 143.09 119.754 141.952 119.949C140.809 120.144 139.758 120.219 139.078 120.169C139.042 120.167 139.011 120.164 138.983 120.161C139.031 120.004 139.091 119.758 139.038 119.486C138.969 119.124 138.732 118.817 138.339 118.557C137.965 118.311 137.485 118.116 136.995 117.944C136.713 117.845 136.399 117.744 136.087 117.644C135.867 117.573 135.647 117.503 135.44 117.433C134.917 117.257 134.422 117.073 133.999 116.856C133.574 116.638 133.253 116.403 133.049 116.144ZM138.778 120.121C138.778 120.121 138.778 120.121 138.779 120.122L138.778 120.121Z" fill="#DD0000" fill-opacity="0.25" stroke="#DD0000"/>
<path d="M111.218 89.4378C109.323 89.1204 108.084 89.501 107.269 89.9007C107.07 89.9982 106.9 90.095 106.761 90.1765C106.732 90.1932 106.705 90.2088 106.681 90.2234C106.643 90.2455 106.609 90.2653 106.578 90.283C106.521 90.1253 106.51 89.9936 106.524 89.8832C106.544 89.7195 106.626 89.5462 106.797 89.3613C107.156 88.9741 107.833 88.6191 108.737 88.3307C110.526 87.7605 112.909 87.5412 114.431 87.6361C115.872 87.726 117.46 87.9063 119.106 88.2901C121.162 88.7692 123.258 89.2781 125.121 89.901C126.993 90.5267 128.581 91.252 129.649 92.1412C130.665 92.987 131.074 94.13 131.099 95.1045C131.111 95.5934 131.026 96.0208 130.889 96.3327C130.746 96.6559 130.58 96.791 130.47 96.8281C130.374 96.8606 130.218 96.8598 129.894 96.6837C129.583 96.5148 129.22 96.2434 128.738 95.8827C128.715 95.8653 128.691 95.8477 128.668 95.8299C127.654 95.072 126.262 94.0492 124.243 93.286C120.336 91.8087 114.829 90.0425 111.218 89.4378Z" fill="#DD0000" fill-opacity="0.25" stroke="#DD0000"/>
<path d="M130.954 116.605L127.771 117.217C126.36 117.489 124.906 117.436 123.519 117.065L122.171 116.703C121.998 116.657 121.829 116.598 121.665 116.526C119.82 115.714 119.035 113.519 119.947 111.721L120.869 109.902C121.01 109.624 121.131 109.336 121.23 109.04L124.623 98.9449L124.628 98.9301L124.632 98.915L125.97 93.9209C126.131 93.3206 126.419 92.7617 126.813 92.2818L128.357 90.4052C128.502 90.2297 128.735 90.1548 128.955 90.2136C129.172 90.2719 129.336 90.4508 129.375 90.6725L130.251 95.6298L130.251 95.6298L130.254 95.6431L131.022 99.3971C131.124 99.8961 131.186 100.402 131.207 100.911L131.36 104.647C131.396 105.518 131.54 106.381 131.789 107.216L132.934 111.053L132.96 111.18C132.991 111.333 132.921 111.488 132.786 111.566C132.474 111.746 132.246 112.044 132.152 112.392L131.925 113.239C131.825 113.613 131.793 114.002 131.83 114.388L131.919 115.296C131.979 115.915 131.563 116.48 130.954 116.605Z" fill="#DD0000" fill-opacity="0.25" stroke="#DD0000"/>
<path d="M105.66 81.1675C105.744 81.0768 105.834 80.9983 105.927 80.9298C106.229 80.7098 106.599 80.5743 107.031 80.4967C107.463 80.4189 107.936 80.4029 108.428 80.4076C108.616 80.4094 108.817 80.4146 109.019 80.4199C109.317 80.4276 109.617 80.4354 109.883 80.4324C110.648 80.4238 111.532 80.5588 112.222 80.7962C112.329 80.8329 112.428 80.8713 112.521 80.9108C109.812 80.9359 107.358 81.0136 105.66 81.1675ZM105.121 82.2284C106.807 82.0285 109.666 81.9318 112.903 81.9077C112.81 81.9923 112.701 82.083 112.575 82.1789C112.168 82.4882 111.632 82.8224 111.05 83.1515C109.888 83.8083 108.594 84.4163 107.905 84.7298C107.877 84.7426 107.85 84.7549 107.824 84.7667C107.677 84.8338 107.562 84.8861 107.471 84.9266C107.398 84.7906 107.293 84.6379 107.132 84.4751L106.777 84.8271L107.132 84.4751C107.013 84.3553 106.845 84.2492 106.691 84.1614C106.525 84.0671 106.328 83.967 106.119 83.8651C105.964 83.7895 105.804 83.7132 105.642 83.6357C105.439 83.5392 105.233 83.4409 105.028 83.3396C105.021 82.9098 105.051 82.5368 105.121 82.2284ZM107.607 85.2508C107.607 85.251 107.606 85.2486 107.604 85.2431C107.606 85.2478 107.608 85.2506 107.607 85.2508ZM104.076 82.4044C104.059 82.5332 104.047 82.6651 104.039 82.7994C103.987 82.7662 103.938 82.7335 103.893 82.7011C103.804 82.6382 103.735 82.5821 103.683 82.5334C103.774 82.492 103.902 82.4481 104.076 82.4044ZM104.887 91.779C104.891 91.7772 104.895 91.7758 104.899 91.7748C104.9 91.7759 104.901 91.7772 104.903 91.7786C104.754 92.0172 104.587 92.2797 104.407 92.5625C103.443 94.076 102.109 96.1705 101.223 98.2996C100.624 99.737 100.394 101.249 100.201 102.518C100.191 102.587 100.18 102.656 100.17 102.723C100.068 103.389 99.9737 103.969 99.8402 104.456C99.7057 104.946 99.5458 105.284 99.3483 105.498C98.9817 105.896 98.3777 105.968 97.7608 105.72C97.1361 105.469 96.6894 104.962 96.6295 104.46C96.5593 103.871 96.7726 103.107 97.2594 102.111C97.7402 101.127 98.4437 100.003 99.2574 98.7102C100.853 96.1763 103.223 93.4101 104.589 92.0083C104.741 91.8519 104.84 91.7966 104.887 91.779ZM121.093 80.3717C121.147 80.3327 121.205 80.2926 121.267 80.2513C121.831 79.8715 122.627 79.4418 123.537 79.0139C125.358 78.158 127.568 77.342 129.166 76.969C130.702 76.6102 131.729 76.7853 132.754 77.0343C132.885 77.0661 133.017 77.0995 133.151 77.1333C134.08 77.3683 135.098 77.6259 136.459 77.5238C137.887 77.4167 139.026 77.0023 140.058 76.6273C140.139 76.5976 140.22 76.5682 140.3 76.5392C141.404 76.1408 142.401 75.8186 143.632 75.8855C144.905 75.9547 146.269 76.3182 147.374 76.77C147.926 76.9954 148.402 77.2381 148.762 77.4684C149.141 77.7108 149.332 77.9019 149.391 78.0038C149.399 78.0169 149.404 78.0275 149.407 78.0356C149.364 78.0855 149.241 78.1812 148.955 78.3034C148.346 78.563 147.345 78.8073 145.987 79.1334C145.903 79.1536 145.819 79.1736 145.737 79.1934C143.216 79.7994 141.43 80.2289 136.415 80.4667C132.68 80.6439 127.566 80.5217 123.749 80.4306C122.761 80.407 121.861 80.3855 121.093 80.3717ZM132.871 83.1256C132.866 83.1213 132.862 83.1171 132.858 83.1132C134.593 83.516 136.182 84.0884 137.91 85.417C139.4 86.5617 140.504 88.2254 141.456 89.8858C141.692 90.2989 141.918 90.7085 142.138 91.1083L142.175 91.1755C142.381 91.5506 142.582 91.9175 142.78 92.2643C143.197 92.9938 143.616 93.6663 144.063 94.1751C144.495 94.6665 144.911 94.9583 145.317 95.0803C145.101 95.3251 144.85 95.586 144.582 95.8394C144.23 96.1717 143.856 96.4839 143.498 96.7278C143.133 96.9771 142.82 97.1315 142.586 97.1851C141.969 97.3264 141.759 97.2856 141.564 97.15C141.439 97.0634 141.292 96.915 141.095 96.6536C140.898 96.3937 140.673 96.051 140.382 95.5964C139.861 94.7807 139.456 93.5897 139.01 92.2787C138.995 92.2339 138.98 92.189 138.964 92.1439C138.514 90.8196 138.019 89.392 137.314 88.3277C136.591 87.236 135.843 86.7536 135.172 86.4175C135.019 86.3411 134.88 86.2755 134.752 86.2152C134.3 86.0017 133.991 85.8554 133.718 85.5361C133.548 85.3368 133.489 85.1872 133.465 85.073C133.438 84.9465 133.445 84.8284 133.458 84.6397L133.459 84.6257C133.471 84.4541 133.488 84.2041 133.414 83.9371C133.333 83.6464 133.159 83.3811 132.871 83.1256Z" fill="#DD0000" fill-opacity="0.25" stroke="#DD0000"/>
<path d="M119.071 83.7228C119.07 83.7766 119.067 83.8323 119.063 83.8901C119 84.8846 118.683 86.2535 118.246 87.7409C117.614 89.8963 116.763 92.2026 116.157 93.8453C115.927 94.4685 115.732 94.9963 115.598 95.3839C115.402 95.9501 115.242 96.2414 115.137 96.3777C115.087 96.3123 115.025 96.2123 114.951 96.0729C114.915 96.0045 114.883 95.9401 114.85 95.8741C114.833 95.8407 114.816 95.8068 114.798 95.7718C114.752 95.6815 114.694 95.5689 114.631 95.4797C114.562 95.3821 114.488 95.3114 114.421 95.2606C114.439 95.1868 114.465 95.0899 114.503 94.9623C114.596 94.6518 114.749 94.1931 114.987 93.5048C115.305 92.5856 115.907 91.2822 116.569 89.8465C116.878 89.1758 117.201 88.4762 117.514 87.7733C118 86.6842 118.458 85.5961 118.79 84.6295C118.896 84.3197 118.992 84.0156 119.071 83.7228ZM114.235 95.146C114.235 95.1461 114.237 95.1472 114.241 95.1494C114.236 95.1472 114.235 95.146 114.235 95.146ZM111.976 83.2117C112.314 82.7975 112.644 82.6081 112.943 82.5076C112.604 83.0926 112.271 83.7724 111.945 84.5009C111.393 85.7382 110.85 87.152 110.336 88.5518C110.078 89.2523 109.828 89.9514 109.587 90.6245L109.562 90.6941C109.329 91.3429 109.106 91.9662 108.893 92.5454C108.469 93.6996 108.097 94.652 107.788 95.2683C107.803 95.1519 107.819 95.0335 107.835 94.9147C107.844 94.8473 107.853 94.7797 107.862 94.7123C108.067 93.1718 108.877 90.1373 109.715 87.8042C110.558 85.4593 111.075 84.315 111.976 83.2117Z" fill="#DD0000" fill-opacity="0.25" stroke="#DD0000"/>
<path d="M97.2532 110.411L97.2611 110.543C95.3091 110.901 91.932 111.502 89.3507 111.957C89.728 110.77 90.1261 109.055 90.4481 107.396C90.7669 105.753 91.0231 104.103 91.1071 103.019C91.5041 103.144 91.9702 103.276 92.4684 103.416C92.5692 103.444 92.6716 103.473 92.7754 103.502C93.5148 103.708 94.3247 103.935 95.1281 104.185C96.045 104.471 96.9391 104.783 97.6937 105.124C98.4606 105.471 99.0304 105.826 99.3461 106.173C100.039 106.935 100.274 107.652 100.151 108.283C100.029 108.908 99.5257 109.598 98.4034 110.255C98.2358 110.278 98.0566 110.303 97.8901 110.326C97.8249 110.335 97.7617 110.344 97.7019 110.352C97.5795 110.369 97.4716 110.384 97.3886 110.395C97.347 110.4 97.313 110.404 97.2873 110.407C97.2576 110.411 97.2495 110.411 97.2532 110.411ZM89.8279 112.888C90.5595 112.759 91.3459 112.62 92.1398 112.479C91.3389 112.662 90.5532 112.804 89.8279 112.888ZM89.4664 107.206C89.0897 109.147 88.6221 111.087 88.2271 112.154C87.5227 112.278 86.9272 112.382 86.5054 112.455C86.3062 112.217 86.2012 111.827 86.2348 111.228C86.2749 110.513 86.5083 109.633 86.8442 108.692C87.1777 107.757 87.5997 106.797 87.9961 105.929C88.1034 105.694 88.2097 105.464 88.3119 105.243C88.5818 104.659 88.8237 104.136 88.9834 103.739C89.1873 103.232 89.4103 102.808 89.6248 102.487C89.8126 102.206 89.9772 102.029 90.0977 101.935C90.1184 102.026 90.1341 102.157 90.1362 102.336C90.1456 103.175 89.8667 105.143 89.4664 107.206ZM86.1289 113.569C86.1287 113.569 86.1305 113.568 86.1347 113.565C86.1312 113.568 86.129 113.569 86.1289 113.569Z" fill="#DD0000" fill-opacity="0.25" stroke="#DD0000"/>
<path opacity="0.5" d="M98.3399 21.7175C98.4771 21.7197 98.6207 21.7248 98.7703 21.7329C98.7376 21.8184 98.7045 21.905 98.6711 21.9926C98.4267 22.6319 98.1635 23.3207 97.9277 23.9889C97.5793 24.9761 97.2718 25.9699 97.1627 26.7588C97.0921 27.2695 96.9821 27.6335 96.8819 27.9185C96.8564 27.9911 96.8313 28.059 96.8067 28.1256L96.8003 28.1427C96.7782 28.2023 96.7559 28.2627 96.7356 28.3203C96.6919 28.444 96.6474 28.583 96.6253 28.728C96.602 28.8808 96.6029 29.044 96.6507 29.2167C96.6976 29.3859 96.7823 29.5371 96.8898 29.6781C97.0938 29.9456 97.4246 30.231 97.8822 30.5853C98.4207 31.0023 99.1509 31.2789 99.9119 31.4844C100.681 31.6919 101.533 31.84 102.345 31.9732C102.459 31.9919 102.572 32.0103 102.684 32.0286C103.38 32.1418 104.033 32.2479 104.595 32.3774C105.268 32.5325 105.713 32.7013 105.936 32.8847C106.161 33.0704 106.223 33.2431 106.228 33.39C106.233 33.556 106.168 33.7651 106.005 33.9991C105.673 34.4774 105.053 34.889 104.527 35.0094C103.292 35.2922 102.201 35.3995 100.493 34.9419C99.2008 34.5956 97.9978 34.0433 96.9449 33.3857C96.3103 32.9893 95.8304 32.4273 95.3481 31.754C94.6382 30.7631 94.2773 29.5794 94.4824 28.4444C94.6076 27.7519 94.7871 26.9678 95.0336 26.2225C95.432 25.3653 95.8139 24.8397 96.3315 24.2112C96.4499 24.0675 96.5761 23.9176 96.7113 23.757C97.1469 23.2395 97.6763 22.6107 98.3399 21.7175ZM99.0506 20.7484C99.1068 20.6723 99.1647 20.5946 99.2234 20.5169C99.196 20.594 99.1674 20.6733 99.1377 20.7547C99.1085 20.7525 99.0795 20.7504 99.0506 20.7484ZM117.849 26.3113C117.963 26.3409 118.045 26.3614 118.097 26.3743C118.123 26.3807 118.144 26.3858 118.16 26.3892L118.16 26.3893C118.165 26.3904 118.179 26.3937 118.194 26.3963C118.198 26.397 118.21 26.3991 118.226 26.4009C118.233 26.4017 118.252 26.4037 118.275 26.404C118.283 26.4041 118.296 26.4042 118.312 26.4032C118.871 26.5252 119.509 26.6547 120.196 26.794C121.134 26.9844 122.163 27.1931 123.203 27.4261C125.638 27.9714 128.193 28.6592 130.099 29.587C132.066 30.5441 133.222 31.1833 134.106 31.9821C134.981 32.7719 135.617 33.744 136.478 35.429C138.167 38.7343 138.693 41.7217 138.504 46.1146C138.41 48.2949 137.936 50.7923 137.345 52.8963C137.051 53.9469 136.729 54.8904 136.417 55.6398C136.097 56.4072 135.808 56.9171 135.594 57.149C135.58 57.1646 135.567 57.177 135.557 57.1866C135.554 57.1845 135.552 57.1824 135.55 57.1801C135.401 57.0294 135.214 56.6701 135.01 56.0906C134.718 55.2584 134.456 54.1762 134.204 53.1287C134.114 52.7574 134.025 52.3905 133.937 52.0407C133.642 50.8744 133.634 49.8162 133.624 48.657C133.624 48.5876 133.623 48.5177 133.623 48.4475C133.612 47.2121 133.579 45.8774 133.142 44.3025C132.94 43.576 132.832 42.9469 132.731 42.3481L132.721 42.2926C132.625 41.7193 132.53 41.1564 132.358 40.5921C131.991 39.3923 131.289 38.2349 129.596 36.7131C127.891 35.1794 125.305 33.8676 122.839 32.6726C122.557 32.536 122.277 32.401 122 32.2674C119.809 31.2115 117.798 30.2427 116.53 29.2598C115.076 28.1323 114.707 27.4203 114.638 26.9877C114.604 26.7759 114.634 26.5916 114.695 26.3993C114.724 26.3059 114.758 26.217 114.797 26.1152C114.801 26.107 114.804 26.0987 114.807 26.0904C114.83 26.0313 114.855 25.9658 114.879 25.8967C114.903 25.8933 114.932 25.89 114.967 25.8874C115.184 25.8716 115.497 25.891 115.864 25.9371C116.586 26.0278 117.408 26.2071 117.849 26.3113ZM135.514 57.2188C135.514 57.2187 135.514 57.2183 135.516 57.2178C135.514 57.2186 135.513 57.2189 135.514 57.2188ZM135.596 57.2192C135.597 57.2198 135.598 57.2203 135.598 57.2203C135.598 57.2204 135.597 57.2201 135.596 57.2192Z" fill="#DD0000" fill-opacity="0.25" stroke="#DD0000"/>
<path opacity="0.5" d="M115.519 22.1512C115.548 22.0852 115.578 22.0185 115.608 21.9511C116.456 20.0587 117.525 17.6752 119.756 16.3871C121.414 15.4298 122.79 14.6529 124.423 14.2547C126.044 13.8597 127.954 13.8306 130.663 14.4511C136.121 15.7017 142.214 18.5377 146.818 22.6607C150.744 26.1771 151.845 29.5262 153.067 33.2405C153.263 33.8377 153.463 34.4444 153.677 35.0627C154.426 37.2161 154.721 39.3742 154.764 41.0695C154.786 41.9172 154.744 42.6401 154.667 43.1816C154.654 43.2748 154.64 43.3616 154.625 43.4419C154.5 43.157 154.357 42.7973 154.191 42.3774C154.175 42.3369 154.158 42.2958 154.142 42.2541C153.617 40.9339 152.894 39.1423 151.895 37.8221C151.514 37.3182 151.186 36.847 150.872 36.3967C149.653 34.6443 148.653 33.2073 145.569 31.385C141.763 29.1366 139.133 27.7774 132.749 26.5008C129.546 25.8602 125.696 25.6614 122.218 25.5337C121.692 25.5144 121.176 25.4968 120.672 25.4795C117.808 25.3815 115.343 25.2971 113.821 25.0077C113.396 24.9268 113.099 24.8469 112.901 24.7736C112.922 24.7613 112.945 24.7485 112.969 24.7352C114.038 24.1463 114.986 23.336 115.519 22.1512Z" fill="#DD0000" fill-opacity="0.25" stroke="#DD0000"/>
<path opacity="0.2" d="M93.8487 125.947L93.8319 125.947L93.815 125.948L90.3314 126.091C89.2833 126.134 88.3751 125.371 88.236 124.332C88.1024 123.333 88.7212 122.388 89.6897 122.111L95.726 120.384C96.7005 120.105 97.714 119.988 98.7264 120.036L103.605 120.269C104.635 120.318 105.649 120.535 106.609 120.91L112.905 123.369C113.45 123.582 113.944 123.907 114.355 124.322L115.754 125.733C116.335 126.319 116.425 127.232 115.971 127.921C115.808 128.167 115.686 128.437 115.61 128.722L115.38 129.582C114.947 131.197 112.822 131.568 111.869 130.194C111.61 129.821 111.269 129.513 110.873 129.292L108.712 128.093C107.962 127.676 107.163 127.353 106.334 127.131L103.991 126.504C103.194 126.29 102.374 126.171 101.549 126.149L93.8487 125.947Z" fill="#DD0000" fill-opacity="0.25" stroke="#DD0000"/>
</g>
</svg>
